<?xml version="1.0" standalone="no"?>
<!DOCTYPE svg PUBLIC "-//W3C//DTD SVG 20010904//EN"
 "http://www.w3.org/TR/2001/REC-SVG-20010904/DTD/svg10.dtd">
<svg version="1.0" xmlns="http://www.w3.org/2000/svg"
 width="2048.000000pt" height="2048.000000pt" viewBox="0 0 2048.000000 2048.000000"
 preserveAspectRatio="xMidYMid meet">
<metadata>
Created by potrace 1.11, written by Peter Selinger 2001-2013
</metadata>
<g transform="translate(0.000000,2048.000000) scale(0.100000,-0.100000)"
fill="#000000" stroke="none">
<path d="M1000 19176 c0 -3 13 -26 29 -53 16 -26 209 -356 429 -733 219 -377
486 -833 592 -1015 206 -353 321 -550 524 -900 71 -121 132 -224 136 -230 8
-10 0 -25 -160 -300 -49 -82 -143 -244 -210 -360 -156 -268 -142 -245 -283
-485 -66 -113 -131 -225 -145 -250 -13 -25 -37 -65 -52 -90 -15 -25 -68 -115
-117 -200 -50 -85 -154 -265 -233 -400 -79 -135 -199 -342 -268 -460 -178
-308 -271 -468 -304 -523 l-28 -47 791 2 790 3 260 445 c143 245 288 492 322
550 68 117 130 224 204 350 28 47 90 153 138 237 76 130 91 149 100 135 12
-17 234 -396 505 -862 141 -241 484 -825 498 -848 6 -10 172 -12 794 -10 l786
3 -239 410 c-131 226 -252 433 -268 460 -16 28 -115 196 -219 375 -189 325
-244 420 -375 645 -38 66 -77 134 -87 150 -9 17 -58 100 -107 185 -50 85 -183
314 -297 509 -114 195 -206 362 -203 370 3 13 285 498 1140 1961 66 113 160
275 210 360 49 85 120 207 157 270 37 63 97 166 133 229 37 62 67 115 67 117
0 2 -354 3 -787 2 l-788 -3 -102 -175 c-57 -96 -122 -206 -144 -245 -122 -206
-163 -277 -340 -580 -106 -181 -223 -384 -261 -450 -38 -66 -73 -124 -77 -128
-6 -6 -586 973 -900 1520 l-36 62 -787 1 c-434 0 -788 -2 -788 -4z"/>
<path d="M7926 19148 c9 -18 38 -71 64 -118 26 -47 63 -114 82 -150 83 -153
462 -848 483 -885 19 -35 75 -137 190 -350 18 -33 166 -305 330 -605 163 -300
312 -572 330 -605 18 -33 72 -132 120 -220 48 -88 102 -187 120 -220 18 -33
44 -80 57 -105 14 -25 73 -133 132 -241 l106 -197 0 -1161 0 -1161 695 0 695
0 0 1165 0 1165 208 383 c115 210 225 411 244 447 19 36 102 187 183 335 573
1048 676 1238 733 1345 25 47 62 114 82 150 20 36 58 103 83 150 25 47 145
267 266 490 122 222 221 408 221 412 0 4 -353 8 -785 8 l-786 0 -103 -212
c-57 -117 -199 -406 -316 -643 -117 -236 -267 -542 -335 -680 -176 -358 -385
-779 -390 -784 -5 -4 -156 301 -990 1997 l-158 322 -789 0 -789 0 17 -32z"/>
<path d="M15340 18515 l0 -665 1130 0 c705 0 1130 -4 1130 -9 0 -8 -328 -533
-495 -791 -23 -36 -144 -227 -270 -425 -126 -198 -348 -549 -495 -780 -147
-231 -417 -656 -600 -945 -183 -289 -357 -562 -386 -608 l-54 -83 0 -539 0
-540 2075 0 2075 0 0 665 0 665 -1175 0 c-646 0 -1175 3 -1175 8 0 4 35 62 78
130 103 164 373 589 534 842 72 113 200 315 286 450 217 343 808 1275 847
1335 35 54 263 412 324 508 20 32 82 130 138 218 l101 160 -1 532 -2 532
-2032 3 -2033 2 0 -665z"/>
<path d="M6683 11098 c-111 -17 -205 -87 -252 -187 -22 -47 -26 -70 -26 -141
1 -71 5 -94 28 -141 32 -66 99 -132 165 -162 73 -34 198 -31 273 6 63 30 125
92 161 159 33 61 33 211 1 280 -60 130 -207 209 -350 186z m122 -157 c100 -46
135 -158 83 -261 -33 -65 -91 -93 -176 -87 -56 4 -68 9 -99 38 -83 80 -85 204
-5 277 58 53 128 65 197 33z"/>
<path d="M10383 11099 c-109 -18 -194 -80 -243 -175 -22 -43 -25 -62 -25 -154
0 -90 3 -111 23 -148 35 -66 85 -115 149 -148 51 -26 68 -29 148 -29 84 0 95
2 153 34 68 37 127 98 112 115 -4 6 -33 24 -64 41 l-55 29 -20 -26 c-44 -55
-167 -64 -235 -17 -72 49 -94 181 -41 260 58 89 199 103 271 28 l28 -29 45 27
c90 52 88 46 45 93 -42 47 -111 85 -170 95 -21 4 -46 8 -54 10 -8 1 -39 -1
-67 -6z"/>
<path d="M13887 11099 c-81 -19 -137 -68 -157 -137 -15 -55 -12 -83 13 -132
28 -57 65 -81 182 -120 103 -34 120 -48 111 -85 -8 -30 -39 -40 -104 -32 -37
4 -53 12 -80 41 l-33 37 -57 -32 c-31 -18 -59 -34 -61 -35 -2 -2 2 -17 9 -34
18 -44 86 -98 144 -115 214 -64 399 90 315 262 -24 50 -76 85 -169 114 -121
37 -156 74 -109 112 36 29 96 18 131 -24 l27 -32 36 19 c20 10 47 28 61 39
l25 20 -30 41 c-50 70 -167 113 -254 93z"/>
<path d="M4722 10773 l3 -318 73 -3 72 -3 0 99 0 99 78 5 c125 7 206 66 234
171 23 87 -20 187 -100 235 -45 26 -54 27 -205 30 l-157 4 2 -319z m293 152
c30 -29 32 -70 6 -104 -16 -21 -30 -26 -85 -29 l-66 -4 0 81 0 81 60 0 c51 0
65 -4 85 -25z"/>
<path d="M8320 10769 l0 -321 163 4 c149 3 166 5 217 29 112 52 173 146 178
274 5 106 -22 180 -88 245 -74 75 -128 90 -315 90 l-155 0 0 -321z m340 155
c52 -30 82 -96 78 -167 -5 -64 -25 -98 -78 -134 -27 -19 -47 -23 -111 -23
l-79 0 0 176 0 177 79 -5 c53 -3 89 -11 111 -24z"/>
<path d="M12110 11087 c0 -1 -10 -30 -21 -62 -44 -123 -189 -558 -189 -566 0
-5 35 -9 78 -9 l78 0 15 48 15 47 119 0 119 0 15 -47 15 -48 78 0 c43 0 78 4
78 8 0 7 -147 448 -195 585 l-17 47 -94 0 c-52 0 -94 -1 -94 -3z m160 -384 c0
-9 -19 -13 -65 -13 -36 0 -65 3 -65 8 0 4 14 54 32 111 l32 103 33 -98 c18
-54 33 -104 33 -111z"/>
<path d="M15360 11020 l0 -70 80 0 80 0 2 -247 3 -248 73 -3 72 -3 2 178 c2
98 3 210 3 248 l0 70 83 3 82 3 0 69 0 70 -240 0 -240 0 0 -70z"/>
<path d="M18241 9420 c-26 -23 -62 -25 -126 -9 -78 20 -134 -16 -67 -42 54
-22 70 -31 96 -56 34 -31 26 -43 -32 -43 -44 0 -66 8 -192 70 -39 19 -115 42
-202 61 -58 12 -399 18 -658 10 -111 -3 -130 -6 -170 -28 -25 -14 -54 -34 -65
-43 -11 -10 -49 -28 -85 -41 -64 -23 -158 -28 -366 -20 -38 1 -64 -5 -105 -26
-97 -50 -187 -80 -260 -86 -63 -6 -175 -57 -199 -91 -53 -78 -143 -132 -208
-124 -24 3 -27 7 -26 41 1 20 -3 37 -7 37 -12 0 -167 -137 -199 -175 -36 -43
-45 -50 -149 -116 -112 -72 -248 -187 -291 -247 -36 -50 -84 -82 -123 -82 -16
0 -43 -6 -60 -14 -18 -7 -84 -28 -147 -47 -189 -54 -212 -67 -332 -187 -60
-59 -108 -114 -108 -123 0 -9 -7 -23 -16 -30 -17 -14 -134 -252 -159 -324 -8
-22 -26 -71 -40 -110 -15 -38 -30 -86 -34 -105 -9 -44 -38 -105 -57 -121 -8
-6 -14 -30 -14 -53 0 -23 -4 -46 -9 -52 -5 -5 -12 -31 -15 -59 -3 -27 -10 -81
-16 -120 -18 -119 -21 -310 -5 -348 7 -17 16 -77 20 -132 3 -55 10 -115 15
-134 5 -19 7 -38 4 -43 -3 -4 -2 -13 1 -19 4 -6 9 -56 11 -111 2 -55 6 -108 9
-118 7 -22 44 -33 62 -18 10 8 13 6 13 -10 0 -11 7 -27 15 -36 14 -14 14 -19
-5 -55 -11 -22 -20 -45 -20 -50 0 -18 -49 -117 -63 -130 -11 -8 -13 -21 -7
-45 4 -18 3 -41 -2 -50 -6 -10 -7 -29 -4 -42 4 -14 3 -30 -1 -37 -4 -7 -9 -21
-9 -32 -8 -95 -17 -164 -25 -185 -5 -14 -13 -61 -18 -105 -6 -44 -15 -111 -21
-150 -7 -38 -12 -82 -13 -97 0 -15 -6 -29 -14 -32 -15 -6 -18 -52 -4 -60 5 -4
12 -28 16 -55 4 -28 13 -52 21 -55 17 -7 18 -59 3 -141 -9 -47 -8 -65 4 -94 9
-20 26 -74 38 -121 12 -47 26 -89 31 -94 4 -6 8 -26 8 -46 0 -23 14 -63 36
-106 43 -80 55 -96 135 -183 70 -75 86 -109 95 -199 6 -74 28 -156 56 -211 10
-19 18 -40 18 -46 0 -6 10 -21 23 -33 l23 -22 35 30 c38 33 49 35 95 18 22 -8
43 -8 66 -2 30 9 36 7 70 -24 43 -39 59 -80 58 -143 -1 -68 0 -81 12 -103 6
-11 15 -52 19 -91 13 -105 19 -137 34 -170 38 -86 94 -266 101 -322 3 -27 17
-72 30 -101 13 -29 24 -55 24 -58 0 -8 44 -69 53 -72 4 -2 7 -11 7 -21 0 -22
39 -133 51 -145 5 -6 9 -20 9 -32 0 -13 4 -26 10 -29 14 -8 60 -111 67 -149 3
-17 10 -37 16 -44 5 -7 13 -40 17 -75 12 -91 30 -137 73 -178 20 -20 37 -44
37 -52 0 -9 5 -19 10 -22 6 -3 10 -14 10 -24 0 -11 12 -24 30 -31 33 -14 100
-88 100 -111 1 -42 83 -159 111 -159 5 0 9 -4 9 -9 0 -18 69 -81 148 -135 204
-138 488 -241 847 -307 192 -35 235 -32 500 34 127 32 245 60 263 63 19 3 52
12 74 20 23 8 43 12 46 9 2 -2 13 0 24 6 10 5 31 12 46 14 15 2 61 13 102 24
88 24 104 25 70 6 -19 -11 -21 -14 -8 -15 10 0 23 9 30 20 8 12 45 30 101 47
l89 28 312 320 c172 176 344 354 382 396 62 67 155 214 216 340 12 26 24 37
37 36 11 0 17 -5 15 -9 -3 -4 8 -14 23 -20 29 -13 62 -46 63 -62 0 -5 11 -24
25 -41 33 -44 52 -104 47 -147 -2 -20 1 -45 7 -56 10 -19 14 -20 39 -9 44 19
71 49 78 84 3 18 10 33 14 33 10 0 34 59 27 67 -4 3 -9 -2 -13 -11 -3 -9 -14
-16 -23 -16 -9 0 -25 -7 -35 -15 -27 -20 -36 -19 -36 6 0 16 -5 20 -20 16 -25
-6 -26 5 -2 26 16 14 18 32 17 108 0 49 2 82 6 72 5 -16 7 -16 13 5 4 12 12
22 17 22 6 0 7 5 4 10 -3 6 1 10 11 10 13 0 14 3 5 13 -6 8 -8 17 -4 20 3 4
19 -8 35 -25 24 -28 28 -29 23 -11 -5 18 -3 22 9 17 9 -3 16 -12 16 -20 0 -8
16 -30 35 -48 19 -19 35 -41 35 -50 0 -10 6 -13 18 -10 11 4 13 3 5 -3 -20
-14 -19 -99 1 -122 l19 -20 31 22 c39 28 65 58 66 77 0 8 9 30 21 49 21 34 18
57 -4 29 -6 -9 -23 -18 -37 -21 -14 -2 -33 -8 -42 -12 -13 -5 -18 -3 -18 8 0
8 -5 17 -11 19 -8 3 -7 13 4 34 10 19 12 36 7 44 -5 8 -5 21 -1 29 5 9 8 33 7
54 -1 24 4 43 15 53 16 14 18 14 29 -5 6 -12 15 -21 20 -21 16 0 11 30 -5 36
-17 7 -21 34 -5 34 6 0 13 -7 16 -15 4 -8 13 -15 20 -15 20 0 30 -30 13 -41
-12 -8 -11 -12 4 -23 13 -10 15 -21 11 -45 -5 -23 -3 -31 8 -31 24 0 45 170
29 240 -8 38 8 137 23 133 3 -1 19 -4 35 -8 16 -3 47 -22 69 -41 55 -47 80
-44 50 7 -11 17 -10 23 9 39 13 10 31 16 40 14 10 -2 24 0 31 4 18 12 0 87
-27 116 -12 12 -21 28 -21 34 0 7 -3 12 -8 12 -4 0 -15 17 -24 39 -23 53 -14
140 23 209 16 30 35 91 44 140 9 48 26 110 39 137 13 28 40 84 60 126 20 42
36 81 36 87 0 6 6 23 14 39 21 41 45 130 51 193 4 30 11 81 16 113 6 32 10
122 10 199 -1 105 3 146 13 157 7 9 16 46 19 82 4 40 15 82 27 105 18 30 21
49 17 96 -5 60 0 66 35 47 30 -16 45 3 24 32 -9 13 -16 31 -16 39 0 9 -12 32
-26 51 -41 54 -72 131 -75 187 -2 44 1 56 24 81 23 26 32 30 58 24 43 -8 59
15 59 88 0 57 15 108 32 110 4 1 12 2 17 3 20 2 19 14 -4 85 -36 109 -35 161
6 269 13 32 11 310 -2 374 -39 195 -83 344 -130 436 -16 31 -29 67 -29 79 0
29 -44 126 -65 143 -9 8 -25 31 -36 52 -11 22 -27 42 -35 45 -17 6 -44 65 -44
96 0 12 -12 38 -27 59 -14 22 -26 51 -25 67 1 29 24 108 42 141 12 23 -4 38
-51 46 -80 16 -110 50 -91 102 29 76 21 101 -43 151 -22 17 -51 40 -64 52 -13
11 -36 26 -51 34 -31 16 -73 69 -107 134 -23 46 -47 152 -63 286 -5 39 -11 81
-13 95 -7 41 -35 99 -72 150 -20 27 -44 72 -54 102 -10 29 -35 103 -55 163
-44 127 -101 252 -150 330 -19 29 -45 73 -56 96 -12 23 -30 51 -41 62 -10 12
-19 25 -19 30 0 6 -18 34 -41 63 -28 37 -50 55 -72 60 -18 3 -49 15 -69 25
-49 25 -228 151 -252 178 -23 25 -25 25 -55 1z m-1631 -1514 c-9 -8 -10 4 -7
49 7 78 10 82 14 16 3 -32 0 -58 -7 -65z m94 35 c-1 -17 2 -34 7 -37 15 -9 10
-108 -6 -130 -14 -18 -15 -18 -13 11 3 54 -2 86 -12 80 -5 -3 -10 -41 -10 -83
0 -85 -9 -108 -35 -98 -15 5 -17 15 -11 66 4 32 13 83 22 112 8 29 16 61 19
72 5 23 25 47 34 41 4 -2 6 -18 5 -34z m344 -3 c2 -8 -4 -15 -13 -15 -8 0 -15
9 -15 20 0 22 23 18 28 -5z m-236 -76 c-7 -2 -12 -9 -12 -17 0 -7 -7 -18 -15
-25 -13 -10 -15 -9 -15 12 0 13 8 34 17 45 16 20 19 20 27 5 6 -10 5 -17 -2
-20z m-2167 2 c25 -16 34 -44 15 -44 -5 0 -10 5 -10 12 0 6 -3 8 -7 5 -7 -8
-43 21 -43 35 0 13 18 10 45 -8z m69 -67 c39 -43 111 -94 125 -89 16 5 81 -26
81 -40 0 -16 -37 -8 -92 20 -65 34 -93 55 -130 101 -32 38 -18 44 16 8z m438
-67 c7 -11 18 -20 25 -20 7 0 13 -4 13 -9 0 -11 -39 -3 -57 12 -15 11 -17 37
-3 37 5 0 15 -9 22 -20z m1657 -28 c10 -35 4 -47 -16 -31 -14 12 -18 51 -6 62
9 9 12 5 22 -31z m-399 6 c0 -5 11 -8 24 -8 14 0 31 -6 38 -13 18 -17 65 -37
88 -37 11 0 20 -7 20 -15 0 -23 17 -18 25 8 4 12 7 25 6 30 -2 11 53 -4 61
-17 17 -25 3 -96 -18 -96 -8 0 -14 -4 -14 -10 0 -13 38 -32 53 -26 7 2 4 5 -5
5 -27 1 -22 18 12 38 17 9 30 21 30 26 0 5 6 4 14 -2 10 -9 16 -9 21 -1 4 7
11 7 18 2 26 -20 57 -20 67 -1 15 27 25 24 28 -8 1 -16 7 -30 13 -32 6 -2 22
-16 37 -32 28 -31 59 -38 68 -14 4 8 11 15 18 15 6 0 22 11 34 25 21 22 25 23
39 10 21 -22 31 -19 75 21 22 19 47 34 56 33 9 -1 25 1 35 6 28 12 33 -3 13
-36 -21 -36 -15 -46 19 -31 33 15 75 15 75 1 0 -7 8 -9 23 -4 12 4 34 8 48 10
29 3 70 24 81 41 11 17 58 5 51 -12 -8 -21 40 -18 87 6 37 19 40 19 50 2 9
-16 11 -16 23 -1 7 9 31 20 53 23 39 7 42 6 49 -21 4 -15 10 -22 12 -16 3 9
10 10 23 3 13 -7 22 -6 32 3 10 11 31 12 98 5 46 -5 88 -14 92 -20 5 -9 10 -9
20 0 8 6 19 7 28 2 8 -5 18 -6 22 -4 4 3 8 1 8 -5 0 -5 18 -12 40 -16 22 -4
42 -11 46 -16 3 -5 21 -9 39 -9 52 0 163 -69 149 -92 -3 -5 2 -15 12 -22 10
-8 15 -20 11 -30 -5 -11 0 -20 16 -27 14 -6 28 -26 36 -52 7 -23 19 -49 27
-58 10 -11 11 -23 5 -47 -9 -30 -7 -32 39 -62 26 -17 51 -38 54 -48 3 -9 9
-23 12 -30 3 -7 -10 -2 -30 10 -19 13 -41 35 -48 49 -10 23 -15 25 -32 15 -12
-6 -22 -12 -24 -12 -5 -2 55 -147 75 -185 11 -19 32 -74 47 -124 15 -49 32
-103 38 -120 14 -41 11 -75 -8 -96 -13 -14 -15 -29 -10 -64 6 -34 4 -45 -6
-45 -10 0 -10 -3 1 -9 12 -8 12 -13 3 -24 -7 -8 -14 -56 -16 -111 -3 -55 -9
-103 -16 -111 -14 -17 -5 -85 10 -85 13 0 13 -37 0 -45 -6 -3 -6 -15 0 -30 5
-13 9 -59 8 -102 0 -43 5 -98 12 -123 22 -82 23 -109 6 -135 -10 -15 -12 -26
-6 -30 6 -4 10 -24 8 -45 -1 -25 4 -46 15 -58 22 -24 22 -78 1 -90 -12 -7 -17
-29 -20 -91 -3 -82 -7 -107 -24 -146 -18 -44 -23 -61 -25 -88 -2 -15 -5 -31
-8 -34 -8 -7 -390 66 -401 78 -6 5 -43 9 -83 9 -54 0 -74 4 -81 15 -15 28
-128 39 -407 39 -297 1 -386 -8 -580 -56 -123 -31 -151 -42 -220 -86 -63 -41
-86 -76 -101 -153 -16 -85 -11 -117 27 -158 30 -33 37 -51 41 -111 2 -19 8
-35 13 -35 13 0 17 105 4 121 -6 8 -4 15 6 24 10 8 15 30 15 62 0 40 5 53 26
73 14 13 29 24 33 23 3 -1 18 4 32 10 15 6 44 14 65 17 22 3 61 11 87 17 73
16 84 -2 29 -49 -23 -19 -42 -39 -42 -44 0 -4 28 -8 63 -9 34 0 70 -1 80 -1 9
0 17 -7 17 -15 0 -8 -4 -13 -8 -10 -5 3 -9 -2 -9 -10 0 -9 6 -13 14 -9 8 3 26
5 39 5 15 0 24 6 24 15 0 8 -5 15 -11 15 -6 0 -9 6 -6 13 2 6 10 11 17 9 9 -2
11 6 7 24 -5 30 1 40 54 72 49 30 79 29 79 -1 0 -13 7 -32 15 -43 19 -24 19
-62 0 -97 -13 -25 -13 -29 1 -34 19 -7 25 -1 27 26 1 19 7 21 65 19 43 -1 66
3 72 11 6 11 13 11 38 -2 22 -11 32 -12 35 -3 3 7 12 4 27 -9 l23 -20 -7 22
c-6 18 -4 22 7 17 8 -3 22 3 32 12 15 15 23 16 78 5 34 -7 70 -13 80 -12 49 4
66 3 112 -3 27 -4 55 -12 61 -17 7 -6 24 -7 39 -3 21 5 27 3 32 -15 3 -11 10
-21 16 -21 17 0 77 -95 77 -124 0 -27 22 -86 32 -86 6 0 17 8 24 18 12 16 13
15 14 -8 0 -34 -27 -144 -50 -208 -11 -29 -20 -58 -20 -65 1 -25 40 40 55 93
37 124 47 151 61 164 18 19 34 61 34 91 0 16 10 31 28 42 15 9 32 21 37 27 17
18 146 47 160 36 6 -5 14 -8 16 -5 3 2 5 -4 6 -13 1 -22 38 -118 56 -146 12
-18 12 -23 0 -34 -10 -10 -11 -17 -4 -26 8 -9 6 -22 -5 -45 -9 -17 -13 -39 -9
-49 3 -9 6 -19 5 -20 -1 -2 10 -17 26 -33 23 -24 25 -31 14 -44 -10 -12 -10
-15 4 -15 9 0 15 -3 15 -7 -3 -20 2 -34 10 -28 5 3 18 -6 29 -20 11 -14 24
-25 29 -25 11 0 36 -67 29 -78 -3 -5 4 -24 16 -42 13 -22 16 -36 9 -38 -6 -2
-11 -16 -11 -32 0 -16 -5 -30 -11 -32 -15 -5 -20 -55 -21 -176 0 -53 5 -98 11
-106 8 -10 7 -21 -4 -43 -14 -28 -14 -37 1 -89 9 -33 17 -83 16 -113 0 -45 -4
-57 -23 -72 -22 -17 -24 -17 -31 -1 -4 9 -7 13 -7 7 -1 -5 -4 -19 -7 -31 -5
-18 0 -22 26 -27 23 -5 31 -12 28 -24 -5 -25 -34 -23 -30 1 3 14 -1 17 -13 13
-9 -4 -25 -1 -36 6 -16 10 -21 9 -29 -3 -5 -8 -19 -15 -31 -15 -12 0 -24 -7
-27 -15 -5 -13 -3 -13 11 -1 15 12 17 11 17 -7 0 -11 -6 -23 -12 -25 -10 -4
-9 -8 2 -16 8 -6 11 -11 5 -11 -5 0 -2 -6 7 -13 15 -12 19 -67 9 -129 -1 -11
-31 -10 -31 1 0 5 -9 11 -20 14 -11 3 -20 1 -20 -4 0 -13 -34 -11 -48 3 -9 9
-13 7 -18 -5 -3 -9 -14 -17 -23 -17 -16 0 -41 -41 -41 -67 0 -16 -5 -16 -31
-3 -11 6 -23 8 -28 6 -11 -7 8 -88 22 -97 5 -4 7 -14 4 -22 -3 -8 -1 -34 4
-57 12 -55 6 -60 -16 -14 -14 30 -21 35 -42 31 -16 -3 -31 2 -44 16 l-19 21
-17 -24 c-10 -14 -19 -29 -20 -35 -1 -5 -7 -30 -13 -54 -9 -37 -8 -46 7 -63
13 -14 15 -23 7 -36 -6 -10 -7 -29 -3 -46 13 -49 -3 -52 -21 -5 -9 24 -26 48
-38 54 -37 17 -45 46 -32 106 15 68 11 103 -13 107 -15 3 -18 0 -12 -17 5 -17
2 -21 -13 -21 -24 0 -33 -18 -21 -42 7 -12 3 -23 -13 -38 -12 -11 -26 -20 -31
-20 -5 0 -6 -14 -2 -30 5 -22 3 -32 -9 -36 -8 -3 -18 -21 -22 -40 -5 -27 -11
-34 -28 -34 -35 0 -38 -10 -11 -42 14 -16 25 -36 25 -45 0 -9 6 -13 14 -10 18
7 56 -20 56 -39 0 -8 4 -14 9 -14 13 0 21 -53 10 -66 -5 -6 -6 -14 -2 -18 4
-3 -2 -12 -12 -20 -17 -12 -18 -19 -8 -62 6 -27 9 -51 7 -53 -9 -10 -65 55
-61 71 5 19 -53 85 -101 113 -18 11 -30 25 -28 32 3 7 -1 13 -9 13 -9 0 -17
-15 -20 -38 -11 -61 -15 -71 -36 -83 -23 -12 -49 3 -49 27 0 8 -4 14 -10 14
-30 0 5 -57 46 -75 18 -8 18 -9 -2 -12 -17 -3 -20 -9 -16 -25 3 -13 -1 -26
-12 -34 -17 -12 -17 -14 -2 -36 20 -28 20 -52 1 -68 -12 -10 -15 -10 -15 0 0
7 -9 1 -20 -13 -25 -32 -25 -52 1 -78 11 -11 23 -36 26 -54 4 -23 12 -35 24
-37 13 -2 16 -7 9 -17 -12 -20 -60 1 -60 27 0 21 -39 58 -76 72 -26 10 -26 15
-10 -60 4 -18 0 -29 -14 -38 -17 -10 -20 -10 -20 3 0 8 -7 15 -16 15 -8 0 -12
-4 -9 -10 3 -5 1 -10 -4 -10 -17 0 -13 -56 4 -70 8 -7 15 -16 15 -21 0 -13
-44 -15 -65 -2 -13 8 -26 9 -35 3 -12 -8 -11 -14 8 -39 24 -33 47 -85 35 -79
-5 2 -24 11 -43 20 -20 9 -55 39 -78 67 -24 28 -48 51 -54 51 -16 0 0 -53 24
-72 11 -10 16 -18 12 -18 -12 0 -37 -40 -30 -47 3 -3 13 0 22 8 16 13 17 12
12 -8 -4 -16 -2 -23 8 -23 7 0 18 -9 24 -20 10 -19 9 -20 -17 -14 -15 4 -42
18 -59 31 -17 12 -35 23 -40 23 -5 0 -17 9 -27 20 -19 23 -57 27 -57 7 0 -8 9
-24 20 -37 11 -13 20 -27 20 -32 0 -5 11 -13 25 -18 31 -12 33 -30 3 -30 -12
0 -18 -3 -15 -6 3 -4 2 -15 -4 -25 -12 -23 -46 -24 -73 -4 -11 8 -30 15 -42
15 -36 0 -49 27 -49 103 0 67 -2 72 -34 104 -35 34 -57 43 -48 19 3 -7 0 -19
-6 -25 -9 -9 -8 -11 7 -5 16 6 17 4 11 -17 -9 -31 -9 -31 0 -52 10 -23 6 -26
-28 -20 -17 3 -32 15 -37 28 -5 13 -15 25 -22 27 -10 4 -10 10 0 33 11 23 10
31 -3 51 -13 20 -18 22 -34 12 -15 -9 -17 -15 -8 -30 7 -10 15 -18 19 -18 5 0
8 -4 8 -10 0 -5 -7 -10 -15 -10 -8 0 -15 -7 -15 -16 0 -10 -5 -14 -15 -10 -13
4 -13 2 -5 -14 18 -33 12 -43 -20 -36 -27 5 -30 3 -30 -18 0 -13 7 -29 15 -36
13 -10 19 -10 35 5 17 15 22 16 36 4 9 -7 20 -23 25 -36 13 -35 32 -29 24 7
-7 30 -6 30 19 19 14 -7 26 -16 26 -20 0 -4 3 -15 6 -23 5 -12 2 -15 -12 -9
-14 5 -16 3 -10 -12 4 -11 2 -22 -6 -26 -7 -5 -11 -22 -10 -41 4 -43 -29 -78
-53 -58 -8 7 -15 19 -15 26 0 21 -14 17 -37 -10 -14 -15 -19 -32 -16 -45 8
-31 -10 -26 -30 8 -25 42 -22 61 12 67 l28 6 -23 25 c-25 27 -54 26 -54 -2 0
-19 -10 -19 -38 1 l-23 15 5 -58 c3 -32 2 -74 -2 -93 -8 -32 -11 -35 -43 -34
-63 3 -88 19 -95 64 -5 30 -11 40 -25 40 -12 0 -19 9 -21 27 -2 16 -7 27 -13
26 -15 -3 -24 -63 -14 -90 5 -13 11 -40 13 -58 l4 -34 -25 16 c-34 23 -44 5
-38 -71 4 -52 3 -57 -11 -45 -8 7 -26 33 -39 58 -19 37 -25 42 -30 28 -4 -9
-2 -24 5 -32 15 -18 -1 -20 -18 -3 -10 10 -14 8 -18 -10 -5 -16 -14 -22 -35
-22 -16 0 -29 4 -29 9 0 6 -25 9 -56 7 -57 -4 -62 0 -68 41 -2 11 -13 19 -31
21 -24 3 -27 1 -22 -17 5 -22 -2 -25 -41 -15 -16 5 -21 12 -17 25 7 20 -20 79
-35 79 -15 0 -12 54 5 76 18 24 19 48 1 41 -7 -3 -19 0 -25 6 -8 8 -17 7 -35
-3 -22 -11 -23 -14 -10 -28 19 -18 13 -36 -12 -40 -16 -3 -16 -1 -4 7 13 9 12
11 -3 11 -17 0 -18 7 -12 73 5 50 12 77 24 87 16 14 16 18 3 38 -14 21 -16 22
-33 6 -11 -10 -19 -23 -19 -31 0 -7 -5 -13 -11 -13 -6 0 -9 10 -7 23 4 20 1
23 -22 19 -15 -2 -30 -13 -35 -25 -6 -12 -16 -23 -22 -23 -7 -1 -17 -2 -23 -3
-17 -2 -11 -31 6 -31 10 0 14 -7 12 -23 -2 -14 -9 -21 -21 -21 -11 1 -17 -5
-17 -20 0 -25 -36 -62 -43 -43 -2 7 -4 -4 -3 -23 1 -19 -3 -36 -9 -37 -11 -3
-12 1 -14 43 -1 22 -3 24 -16 14 -8 -6 -19 -9 -25 -5 -15 9 -12 55 3 55 8 0
22 9 32 20 17 19 17 20 -8 29 -14 6 -31 19 -37 31 -11 20 -11 20 -47 -4 -34
-23 -53 -24 -80 -3 -8 6 -9 15 -4 26 15 26 16 98 3 114 -7 8 -11 20 -10 27 4
18 -29 21 -43 4 -15 -18 -31 -7 -24 17 5 14 0 22 -18 30 -29 13 -27 37 8 84
14 19 20 37 16 48 -9 25 -21 23 -35 -5 -6 -13 -19 -23 -29 -23 -10 0 -21 -5
-25 -11 -10 -16 -40 -13 -47 5 -3 8 1 21 9 27 37 27 6 64 -54 64 -42 0 -80 27
-80 56 0 12 -4 26 -10 29 -5 3 -10 22 -10 41 0 19 -3 34 -7 34 -5 0 -21 -16
-37 -36 -24 -30 -31 -34 -42 -22 -7 7 -14 20 -16 28 -2 8 -11 21 -21 30 -10 8
-27 40 -37 70 -16 48 -23 56 -50 61 -38 8 -36 5 -43 56 -4 37 -1 45 29 77 34
36 43 69 24 81 -6 4 -17 2 -24 -4 -10 -8 -17 -7 -26 4 -10 12 -10 24 -1 54 6
21 11 46 11 55 0 10 7 25 16 34 13 12 15 29 11 78 -7 87 -13 93 -53 51 -18
-20 -34 -44 -36 -54 -2 -13 -13 -18 -42 -19 -31 0 -42 -5 -49 -22 -13 -30 -20
-28 -37 11 -15 33 -20 87 -8 87 3 0 -1 18 -9 40 -9 22 -20 40 -25 40 -4 0 -8
13 -8 28 0 20 -7 33 -24 41 -13 7 -31 32 -40 55 -12 30 -19 37 -25 27 -6 -10
-11 -4 -16 20 -4 19 -14 44 -22 56 -10 14 -13 33 -9 49 5 18 2 32 -10 45 -11
12 -18 39 -19 76 -5 104 -23 262 -31 275 -10 16 -26 121 -26 163 3 162 11 256
25 295 25 72 32 222 23 525 -1 42 2 50 19 53 31 6 45 32 45 86 0 55 16 126 29
126 4 0 7 -10 7 -22 -1 -30 47 -42 85 -22 28 14 66 60 58 69 -3 2 -33 5 -67 7
-34 2 -62 8 -62 13 0 23 58 76 115 104 313 155 1093 99 1220 -86 39 -59 30
-86 -14 -39 -51 54 -288 147 -436 170 -75 12 -303 15 -374 5 -67 -10 -141 -33
-141 -45 0 -3 4 -3 9 0 5 3 14 0 20 -8 9 -10 29 -13 75 -9 40 3 66 1 71 -6 3
-6 1 -11 -5 -11 -14 0 -93 -53 -133 -89 -15 -14 -36 -44 -48 -67 -11 -24 -29
-46 -40 -49 -10 -4 -19 -11 -19 -17 0 -11 35 -7 130 15 25 5 73 9 108 9 35 -1
62 3 62 8 0 6 7 10 15 10 9 0 20 11 25 24 9 26 38 46 64 46 9 0 25 -18 36 -39
24 -47 26 -49 85 -60 48 -9 115 4 115 22 0 5 6 5 13 -1 15 -13 63 -10 76 4 5
5 20 29 34 54 38 70 106 64 128 -10 9 -29 18 -38 50 -48 21 -7 45 -12 53 -12
7 0 19 -7 26 -15 7 -8 16 -13 20 -10 4 2 4 -13 0 -35 -5 -29 -3 -43 6 -51 20
-16 31 18 15 44 -21 32 2 38 36 9 l33 -27 -16 -65 c-9 -36 -20 -73 -25 -82 -5
-10 -9 -26 -8 -35 0 -15 2 -14 11 5 7 13 20 22 35 22 24 0 31 18 13 36 -7 7
-6 21 4 45 9 19 15 26 16 17 0 -9 5 -20 11 -24 7 -4 9 0 5 14 -4 13 -2 24 7
29 8 4 25 42 38 83 l24 75 103 9 c92 7 102 10 97 26 -3 10 2 25 10 34 15 15
14 16 -12 18 -15 1 -61 2 -102 3 -55 0 -75 4 -81 15 -17 33 -34 76 -35 86 0
10 -42 67 -66 89 -5 6 -33 33 -62 60 -28 28 -55 50 -59 50 -5 0 -9 5 -10 10
-6 29 -116 95 -156 95 -17 0 -34 5 -37 10 -3 6 -20 10 -36 10 -16 0 -41 7 -54
16 -19 12 -48 16 -120 15 -52 0 -97 4 -100 9 -9 15 -67 12 -101 -4 -16 -8 -60
-19 -98 -26 -51 -9 -64 -15 -52 -22 31 -17 16 -29 -36 -28 -107 1 -138 -7
-138 -34 0 -8 -7 -16 -15 -20 -8 -3 -15 -11 -15 -18 0 -8 3 -9 8 -3 4 6 25 10
47 10 22 -1 73 4 113 11 46 7 88 8 110 3 21 -5 80 -9 132 -9 52 0 114 -5 137
-10 24 -6 105 -14 180 -19 83 -5 148 -14 163 -23 57 -31 109 -71 104 -79 -3
-5 1 -6 9 -3 8 3 18 -6 26 -22 6 -15 10 -28 9 -29 -15 -14 -78 -1 -78 16 0 5
-14 9 -31 9 -17 0 -38 4 -47 9 -32 17 -256 59 -377 71 -152 15 -492 16 -570 1
-84 -15 -177 -36 -265 -60 -109 -30 -164 -36 -176 -20 -7 9 -7 71 -2 179 15
338 15 356 -6 379 -17 18 -18 27 -10 64 6 23 7 56 2 72 -4 16 -3 34 1 38 5 5
7 16 4 23 -6 16 -33 19 -33 4 0 -5 -7 -10 -16 -10 -13 0 -15 7 -9 38 3 20 11
41 16 47 5 5 9 28 9 52 0 27 5 43 12 43 9 0 9 3 0 12 -9 9 -15 8 -26 -7 -8
-11 -12 -23 -9 -28 2 -4 -12 -23 -32 -43 -24 -23 -34 -41 -31 -52 4 -10 -1
-27 -9 -38 -8 -10 -15 -31 -15 -45 0 -15 -7 -32 -15 -39 -8 -7 -13 -16 -10
-20 7 -11 -23 -80 -34 -80 -16 0 -18 25 -11 130 5 78 13 120 32 165 14 33 28
76 32 96 4 21 18 54 33 75 14 22 26 48 27 59 1 14 8 20 26 20 38 0 68 37 38
47 -7 3 0 19 21 45 17 22 33 51 35 64 2 13 6 31 9 39 8 22 18 71 20 100 1 14
17 55 35 91 17 37 32 73 32 80 0 8 7 23 15 33 8 11 15 31 15 45 1 14 7 37 15
51 8 14 14 46 15 71 0 33 6 51 20 64 11 10 20 26 20 37 0 10 4 26 10 36 5 9
22 46 38 82 33 75 124 187 179 221 21 13 48 34 59 46 12 13 28 23 36 23 9 0
21 6 27 14 14 17 105 31 181 28 30 -2 80 -2 110 -1 30 0 62 0 70 -1 8 -2 60
-4 115 -5 55 -2 132 -7 170 -13 123 -18 192 -23 170 -13 l-20 10 20 0 c23 1
151 -41 162 -53 14 -14 75 -36 84 -30 5 3 9 0 9 -7 0 -15 15 -2 15 14 1 17 15
68 25 94 9 22 31 26 56 10 21 -13 24 33 3 54 -10 10 -23 19 -28 19 -4 0 -6 11
-4 25 3 13 10 23 16 22 7 -1 13 9 15 23 2 14 5 30 7 37 4 13 65 13 65 1z m960
-53 c-7 -9 -15 -13 -17 -11 -7 7 7 26 19 26 6 0 6 -6 -2 -15z m-2130 -4 c0
-12 -20 -25 -27 -18 -7 7 6 27 18 27 5 0 9 -4 9 -9z m1542 -26 c0 -5 -5 -11
-11 -13 -6 -2 -11 4 -11 13 0 9 5 15 11 13 6 -2 11 -8 11 -13z m-485 -71 c-3
-3 -12 -4 -19 -1 -8 3 -5 6 6 6 11 1 17 -2 13 -5z m-1047 -13 c0 -6 -4 -13
-10 -16 -5 -3 -10 1 -10 9 0 9 5 16 10 16 6 0 10 -4 10 -9z m-500 -566 c0 -9
-6 -12 -15 -9 -8 4 -12 10 -9 15 8 14 24 10 24 -6z m-230 -605 c0 -5 -2 -10
-4 -10 -3 0 -8 5 -11 10 -3 6 -1 10 4 10 6 0 11 -4 11 -10z m-47 -72 c-8 -30
-43 -66 -43 -44 0 8 5 27 12 41 14 32 38 34 31 3z m47 -448 c0 -5 -4 -10 -10
-10 -5 0 -10 5 -10 10 0 6 5 10 10 10 6 0 10 -4 10 -10z m3290 -655 c214 -21
370 -72 426 -138 38 -45 28 -52 -23 -14 -34 24 -81 43 -158 65 -166 46 -149
44 -514 61 -211 10 -265 5 -363 -32 -130 -50 -158 -58 -185 -55 l-28 4 30 13
c17 7 48 21 70 31 64 30 179 52 335 65 197 17 242 17 410 0z m-1660 -83 c0 -5
11 -15 25 -22 28 -15 35 -60 10 -60 -25 0 -79 55 -72 73 6 17 37 24 37 9z
m2265 -12 c7 -11 -12 -50 -25 -50 -12 0 -23 37 -15 50 8 13 32 13 40 0z m79 4
c22 -8 20 -31 -4 -44 -15 -8 -21 -6 -29 8 -7 13 -7 22 1 30 14 14 12 14 32 6z
m-3076 -26 c-3 -7 -13 -15 -24 -17 -16 -3 -17 -1 -5 13 16 19 34 21 29 4z
m-793 -19 c10 -15 -1 -23 -20 -15 -9 3 -13 10 -10 16 8 13 22 13 30 -1z m-85
-9 c0 -5 -5 -10 -11 -10 -5 0 -7 5 -4 10 3 6 8 10 11 10 2 0 4 -4 4 -10z
m1148 -13 c2 -9 -4 -20 -13 -23 -20 -8 -50 19 -40 36 10 17 49 8 53 -13z
m1942 -1 c0 -19 -14 -28 -34 -20 -25 10 -19 34 9 34 15 0 25 -6 25 -14z m-730
-4 c0 -14 -36 -52 -43 -46 -9 10 15 54 30 54 7 0 13 -4 13 -8z m-650 -56 l0
-31 -15 29 c-20 39 -20 63 0 46 8 -7 15 -27 15 -44z m1796 4 c15 -6 24 -13 21
-16 -8 -9 -67 6 -67 17 0 12 12 11 46 -1z m1711 -9 c9 -15 9 -23 -1 -36 -14
-19 -36 -13 -36 10 0 7 -5 15 -12 17 -16 6 0 28 20 28 10 0 23 -9 29 -19z
m-1922 -12 c11 -17 -1 -21 -15 -4 -8 9 -8 15 -2 15 6 0 14 -5 17 -11z m278 4
c-7 -2 -19 -2 -25 0 -7 3 -2 5 12 5 14 0 19 -2 13 -5z m1715 -135 c19 -25 24
-112 9 -154 -9 -21 -18 -51 -21 -66 -9 -38 -25 -35 -25 5 0 17 -4 55 -8 82
-10 55 -9 117 2 134 8 15 30 14 43 -1z m-1488 -64 c0 -8 -4 -14 -10 -14 -5 0
-10 9 -10 21 0 11 5 17 10 14 6 -3 10 -13 10 -21z m1460 -230 c0 -8 -9 -14
-20 -14 -21 0 -28 19 -7 21 9 0 9 2 -1 6 -6 2 -9 9 -6 14 8 13 34 -9 34 -27z
m-87 -84 c3 -11 13 -20 22 -20 12 0 15 6 10 19 -5 16 -1 19 15 18 21 -1 29
-40 10 -52 -5 -3 -10 -19 -10 -35 0 -16 -5 -41 -11 -57 -10 -25 -35 -122 -104
-389 -13 -50 -30 -104 -38 -120 -8 -16 -17 -40 -20 -54 -16 -67 -169 -290
-199 -290 -9 0 -22 -8 -27 -18 -13 -24 -185 -113 -248 -128 -86 -20 -109 12
-90 122 6 36 18 67 33 83 21 22 31 25 80 23 53 -2 59 0 99 36 23 22 53 47 67
56 14 9 31 30 38 45 11 27 12 28 52 17 39 -10 41 -10 68 22 18 22 30 50 34 82
4 27 11 52 16 55 6 3 10 20 10 36 0 17 11 54 25 83 15 31 23 61 19 71 -4 9 -2
20 5 24 7 4 14 22 16 39 6 48 28 116 42 130 7 7 13 33 13 58 0 30 5 46 15 50
23 9 18 42 -10 70 -31 30 -31 32 -2 37 50 10 65 7 70 -13z m-5288 -541 c9 -16
15 -47 13 -67 l-3 -37 -22 43 c-19 34 -23 60 -14 90 3 8 13 -2 26 -29z m4340
-607 c-5 -14 -7 -14 -15 -2 -5 9 -4 20 3 28 14 17 22 0 12 -26z m-16 -52 c-21
-14 -32 1 -12 15 12 9 19 10 22 3 2 -6 -3 -14 -10 -18z m-355 -306 c9 -22 8
-24 -9 -24 -8 0 -15 -9 -15 -20 0 -24 -15 -27 -24 -4 -10 25 -7 34 9 34 8 0
15 7 15 15 0 20 16 19 24 -1z m134 -71 c-4 -47 -22 -46 -25 2 -1 25 2 35 13
35 11 0 14 -9 12 -37z m-3586 -66 c-2 -5 -12 -1 -23 9 -18 16 -18 18 -1 30 15
11 18 10 23 -9 3 -12 4 -26 1 -30z m3912 -53 c3 -8 2 -12 -4 -9 -6 3 -10 10
-10 16 0 14 7 11 14 -7z m56 -144 c0 -5 -2 -10 -4 -10 -3 0 -8 5 -11 10 -3 6
-1 10 4 10 6 0 11 -4 11 -10z m-159 -103 c-8 -8 -11 -7 -11 4 0 20 13 34 18
19 3 -7 -1 -17 -7 -23z m-751 -26 c14 -26 13 -81 -1 -81 -20 0 -38 33 -39 68
0 37 23 44 40 13z m720 -11 c-6 -11 -13 -20 -16 -20 -2 0 0 9 6 20 6 11 13 20
16 20 2 0 0 -9 -6 -20z m167 -92 c-3 -8 -6 -5 -6 6 -1 11 2 17 5 13 3 -3 4
-12 1 -19z m-894 -112 c28 -25 36 -46 15 -46 -13 1 -63 70 -50 70 4 0 19 -11
35 -24z m132 -16 c0 -7 -6 -15 -12 -17 -8 -3 -13 4 -13 17 0 13 5 20 13 18 6
-3 12 -11 12 -18z m-225 -15 c0 -3 -9 -5 -20 -5 -11 0 -20 7 -20 15 0 13 4 14
20 5 11 -6 20 -13 20 -15z m-120 -206 c14 -17 35 -41 47 -53 21 -20 28 -46 25
-93 -3 -31 -13 -29 -53 10 -30 28 -34 38 -35 87 -1 31 -6 56 -13 58 -6 2 -11
8 -11 13 0 17 15 9 40 -22z m-260 -139 c0 -5 -2 -10 -4 -10 -3 0 -8 5 -11 10
-3 6 -1 10 4 10 6 0 11 -4 11 -10z m327 -72 c-3 -8 -6 -5 -6 6 -1 11 2 17 5
13 3 -3 4 -12 1 -19z m-303 -55 c8 -20 1 -27 -19 -20 -8 4 -15 15 -15 26 0 24
25 19 34 -6z m-308 -30 c-4 -9 2 -25 14 -38 20 -21 20 -22 1 -39 -11 -10 -24
-15 -30 -12 -17 11 -25 75 -11 91 17 20 34 19 26 -2z m-1271 -118 c0 -11 -11
-30 -25 -42 -22 -19 -27 -20 -41 -7 -8 8 -21 14 -28 14 -22 0 -7 35 17 38 12
2 22 7 22 11 0 4 12 7 27 6 21 0 28 -5 28 -20z m85 -60 c0 -8 -7 -15 -15 -15
-16 0 -20 12 -8 23 11 12 23 8 23 -8z m594 -91 c3 -9 4 -19 2 -23 -3 -4 -1
-24 4 -44 4 -20 5 -37 1 -37 -17 1 -27 18 -26 45 1 17 -2 37 -7 46 -7 16 -2
29 13 29 4 0 10 -7 13 -16z"/>
<path d="M16415 7650 c-8 -13 4 -32 16 -25 12 8 12 35 0 35 -6 0 -13 -4 -16
-10z"/>
<path d="M14540 6214 c0 -10 28 -34 40 -34 8 0 8 6 0 20 -10 18 -40 29 -40 14z"/>
<path d="M17440 5486 c-3 -2 -45 -7 -95 -11 -61 -4 -94 -11 -101 -21 -7 -9
-38 -17 -79 -21 -49 -4 -72 -12 -86 -26 -49 -53 -3 -72 176 -71 125 1 370 23
373 33 2 6 20 11 40 11 28 0 33 3 22 10 -8 5 -22 7 -31 4 -11 -3 -18 3 -22 16
-3 11 -17 24 -33 30 -26 10 -26 11 -8 25 17 14 14 15 -36 14 -30 -1 -69 1 -85
5 -17 4 -33 5 -35 2z"/>
<path d="M18324 5398 c-4 -6 5 -21 21 -34 53 -42 18 -40 -73 5 -27 13 -34 14
-41 2 -5 -7 -14 -10 -20 -6 -13 7 -41 -11 -41 -27 0 -6 9 -8 20 -5 21 6 120
-31 120 -45 0 -4 -12 -9 -27 -9 -24 -2 -25 -2 -5 -6 12 -2 20 -7 18 -11 -2 -4
9 -8 26 -9 25 -2 28 0 18 13 -15 17 -16 16 33 39 31 14 36 21 31 39 -5 20 -51
66 -66 66 -4 0 -10 -5 -14 -12z"/>
<path d="M18120 5356 c0 -2 7 -6 15 -10 8 -3 15 -1 15 4 0 6 -7 10 -15 10 -8
0 -15 -2 -15 -4z"/>
<path d="M18448 5273 c-26 -7 -22 -20 7 -25 19 -4 25 -1 25 13 0 19 -2 20 -32
12z"/>
<path d="M18530 5168 c0 -4 6 -8 14 -8 8 0 17 4 20 8 2 4 -4 8 -15 8 -10 0
-19 -4 -19 -8z"/>
<path d="M16645 4950 c28 -12 45 -12 45 0 0 6 -15 10 -32 9 -28 0 -30 -2 -13
-9z"/>
<path d="M17291 4874 c-28 -36 -27 -50 4 -30 13 9 32 16 40 16 21 0 15 34 -6
38 -9 2 -26 -9 -38 -24z"/>
<path d="M17780 4890 c0 -5 5 -10 11 -10 5 0 7 5 4 10 -3 6 -8 10 -11 10 -2 0
-4 -4 -4 -10z"/>
<path d="M15352 4871 c2 -7 7 -12 11 -12 12 1 9 15 -3 20 -7 2 -11 -2 -8 -8z"/>
<path d="M15427 4853 c-10 -9 -9 -23 2 -23 5 0 11 7 15 15 5 15 -5 20 -17 8z"/>
<path d="M15592 4812 c4 -19 29 -23 35 -6 2 6 -6 14 -17 17 -16 4 -20 1 -18
-11z"/>
<path d="M16927 4731 c-4 -17 -3 -21 5 -13 5 5 8 16 6 23 -3 8 -7 3 -11 -10z"/>
<path d="M16064 4712 c-17 -11 -35 -50 -26 -56 10 -6 52 4 52 13 0 3 3 16 6
29 6 23 -9 30 -32 14z"/>
<path d="M16864 4673 c29 -123 46 -157 69 -134 8 8 7 18 -5 39 -11 18 -13 33
-7 43 6 12 3 22 -11 34 -11 10 -20 24 -20 32 0 7 -7 13 -16 13 -13 0 -15 -6
-10 -27z"/>
<path d="M16941 4647 c2 -1 14 -11 27 -21 12 -11 22 -16 22 -13 0 10 -31 37
-42 37 -6 0 -9 -1 -7 -3z"/>
<path d="M16810 4568 c1 -20 47 -91 53 -81 3 5 1 28 -5 51 -8 31 -16 42 -29
42 -11 0 -19 -6 -19 -12z"/>
<path d="M16867 4474 c-3 -4 1 -23 10 -43 8 -20 15 -46 14 -58 0 -13 8 -27 20
-34 30 -16 34 -4 10 29 -12 17 -21 35 -21 40 0 19 -26 72 -33 66z"/>
<path d="M17034 4155 c-8 -21 21 -63 54 -78 15 -6 29 -14 32 -17 5 -6 58 -30
65 -30 3 0 5 4 5 8 0 5 -18 17 -40 28 -22 10 -40 24 -40 30 0 6 -11 20 -25 32
-14 12 -25 26 -25 32 0 16 -20 12 -26 -5z"/>
<path d="M14980 4115 c0 -3 17 -12 38 -21 118 -52 370 -76 562 -55 108 12 210
38 210 54 0 4 -8 6 -17 3 -138 -41 -470 -53 -625 -23 -47 10 -105 24 -127 32
-23 8 -41 12 -41 10z"/>
<path d="M17160 4113 c0 -14 66 -43 119 -53 25 -5 87 -10 136 -13 50 -2 77 -3
60 0 -120 16 -227 41 -297 68 -10 4 -18 3 -18 -2z"/>
<path d="M15990 3742 c0 -30 35 -98 55 -105 23 -9 18 -23 -20 -60 -43 -42 -45
-60 -7 -52 22 5 24 4 10 -5 -10 -6 -18 -18 -18 -26 0 -9 -5 -12 -12 -8 -8 5
-9 2 -5 -9 7 -18 -60 -80 -75 -71 -5 3 -30 -5 -56 -19 -45 -23 -120 -47 -95
-29 7 4 10 17 7 28 -4 16 -12 19 -35 16 -16 -2 -35 -12 -42 -21 -13 -17 -24
-23 -127 -69 -76 -34 -89 -47 -120 -125 -19 -48 -21 -62 -11 -83 6 -14 11 -34
11 -44 0 -13 7 -20 20 -20 11 0 20 6 20 14 0 14 27 31 44 27 5 -1 13 4 17 11
4 7 16 13 26 14 46 2 53 5 53 20 0 10 6 14 15 10 10 -4 19 5 29 29 10 22 28
41 55 54 22 12 42 25 45 29 3 5 53 10 111 11 58 1 126 8 150 16 25 7 45 10 45
7 0 -4 7 4 16 16 20 29 27 28 61 -8 37 -39 92 -41 135 -5 16 14 38 25 49 25
25 0 35 25 19 45 -11 13 -8 15 14 15 27 0 50 30 28 38 -7 2 -12 10 -12 17 0 7
-16 25 -36 40 -31 24 -34 29 -21 42 12 13 28 13 108 3 82 -11 99 -11 132 4 45
18 49 50 7 52 -66 3 -69 4 -64 19 8 19 -23 32 -39 16 -17 -17 -49 -13 -87 12
-70 48 -148 85 -198 96 -44 9 -57 8 -87 -6 l-35 -17 -40 39 c-37 36 -40 37
-40 17z"/>
<path d="M16810 3716 c-52 -15 -95 -38 -209 -113 -3 -2 0 -8 7 -15 8 -8 22 -4
54 14 24 13 66 32 93 42 28 10 60 23 73 29 17 8 31 8 56 -1 41 -15 74 -15 117
0 36 12 59 30 59 46 0 13 -199 12 -250 -2z"/>
<path d="M16940 3555 c-14 -17 -50 -20 -50 -5 0 6 -4 10 -10 10 -5 0 -10 -7
-10 -15 0 -8 -9 -24 -20 -35 -19 -19 -19 -22 -5 -50 18 -34 22 -87 4 -57 -13
23 -29 12 -29 -20 0 -23 3 -25 33 -19 23 4 28 3 17 -4 -10 -6 -11 -10 -2 -10
6 0 12 -11 12 -24 0 -13 7 -29 15 -36 19 -16 50 -9 50 12 0 25 13 32 30 18 18
-15 45 -6 45 15 0 21 22 19 53 -5 29 -23 47 -26 47 -6 0 7 9 16 20 19 15 4 30
-6 58 -40 l37 -45 60 5 c33 3 61 10 63 16 2 6 10 11 18 11 12 0 12 5 -1 37 -9
21 -23 45 -31 54 -20 22 -75 33 -85 17 -6 -9 -11 -9 -23 1 -8 7 -19 10 -25 7
-15 -10 -53 46 -48 71 2 13 1 23 -2 24 -31 6 -72 5 -76 -1 -11 -19 -57 4 -73
36 -17 37 -50 46 -72 19z m200 -155 c0 -5 -2 -10 -4 -10 -3 0 -8 5 -11 10 -3
6 -1 10 4 10 6 0 11 -4 11 -10z m125 -90 c3 -5 1 -10 -4 -10 -6 0 -11 5 -11
10 0 6 2 10 4 10 3 0 8 -4 11 -10z"/>
<path d="M17338 3440 c18 -11 39 -35 47 -53 10 -24 15 -28 20 -16 3 8 1 28 -4
42 -7 19 -7 27 0 27 6 0 7 5 4 10 -3 6 -27 10 -53 10 l-47 0 33 -20z"/>
<path d="M17462 3402 c0 -34 5 -51 24 -71 19 -21 21 -27 9 -29 -22 -5 -18 -33
5 -39 11 -3 20 -11 20 -19 0 -7 14 -27 30 -44 17 -17 30 -34 30 -39 0 -4 13
-6 29 -3 24 3 29 0 35 -24 7 -28 32 -53 51 -53 6 0 18 11 28 24 15 21 16 29 5
71 -7 26 -28 63 -45 82 -18 20 -33 43 -33 52 0 25 -39 55 -65 52 -18 -3 -28 6
-46 37 -12 23 -25 42 -28 42 -43 10 -48 6 -49 -39z"/>
<path d="M18650 3260 c0 -9 31 -30 45 -30 3 0 1 9 -5 20 -11 20 -40 28 -40 10z"/>
<path d="M18276 3106 c3 -9 11 -16 16 -16 13 0 5 23 -10 28 -7 2 -10 -2 -6
-12z"/>
<path d="M17428 3105 c-2 -2 -32 -5 -66 -6 -35 -1 -65 -5 -67 -9 -3 -4 -26 -8
-52 -10 -80 -3 -83 -4 -83 -15 0 -6 -81 -10 -238 -10 -182 0 -243 -3 -255 -13
-17 -14 -108 -19 -128 -6 -7 4 -73 9 -148 11 -75 2 -147 5 -161 7 -14 1 -31
-2 -38 -7 -7 -6 -15 -7 -18 -4 -3 3 -17 2 -30 -3 -13 -5 -24 -6 -24 -1 0 13
-49 20 -53 7 -3 -8 -10 -8 -24 0 -13 8 -62 10 -154 7 -74 -3 -135 -6 -137 -8
-6 -6 42 -45 70 -57 15 -7 28 -19 28 -25 0 -7 6 -14 13 -14 6 -1 17 -2 22 -4
6 -1 22 -3 37 -3 20 -2 26 -6 22 -17 -9 -22 19 -19 40 4 29 32 82 40 356 56
30 2 60 4 65 5 6 1 27 -3 47 -8 20 -5 39 -7 43 -4 3 3 30 7 60 8 30 2 62 7 72
12 19 10 371 8 438 -2 92 -15 205 -1 280 33 33 15 72 33 88 39 15 6 27 16 27
21 0 10 -25 22 -32 16z"/>
<path d="M17676 3058 c3 -4 9 -8 15 -8 5 0 9 4 9 8 0 5 -7 9 -15 9 -8 0 -12
-4 -9 -9z"/>
<path d="M18167 3039 c7 -7 15 -10 18 -7 3 3 -2 9 -12 12 -14 6 -15 5 -6 -5z"/>
<path d="M18030 2855 c0 -8 5 -15 10 -15 6 0 10 7 10 15 0 8 -4 15 -10 15 -5
0 -10 -7 -10 -15z"/>
<path d="M15114 2765 c-3 -14 1 -42 10 -65 9 -22 16 -54 16 -70 0 -26 22 -50
44 -50 14 0 4 59 -14 95 -13 24 -18 49 -15 63 6 23 -9 52 -26 52 -5 0 -11 -11
-15 -25z"/>
<path d="M17965 2620 c4 -6 11 -8 16 -5 14 9 11 15 -7 15 -8 0 -12 -5 -9 -10z"/>
<path d="M15275 2520 c-3 -5 -1 -10 4 -10 6 0 11 5 11 10 0 6 -2 10 -4 10 -3
0 -8 -4 -11 -10z"/>
<path d="M15589 2208 c0 -2 -2 -10 -4 -18 -2 -8 -7 -26 -11 -39 -6 -21 -5 -22
12 -12 46 27 84 71 49 58 -8 -4 -17 -2 -20 3 -6 9 -24 14 -26 8z"/>
<path d="M16940 2010 c0 -5 12 -10 28 -9 24 0 25 1 7 9 -27 12 -35 12 -35 0z"/>
<path d="M16164 1926 c-8 -22 3 -49 19 -43 6 2 12 14 12 27 0 27 -22 39 -31
16z"/>
<path d="M15665 1900 c-3 -5 3 -10 14 -10 12 0 21 5 21 10 0 6 -6 10 -14 10
-8 0 -18 -4 -21 -10z"/>
<path d="M16065 1900 c-4 -7 -1 -16 6 -21 17 -10 26 8 11 23 -6 6 -12 6 -17
-2z"/>
<path d="M16840 1860 c0 -11 -4 -20 -10 -20 -5 0 -10 -7 -10 -15 0 -22 27 -19
40 4 15 28 12 51 -5 51 -8 0 -15 -9 -15 -20z"/>
<path d="M16363 1593 c9 -2 23 -2 30 0 6 3 -1 5 -18 5 -16 0 -22 -2 -12 -5z"/>
<path d="M16220 1546 c0 -17 27 -29 35 -16 4 6 3 15 0 20 -9 15 -35 12 -35 -4z"/>
<path d="M16327 1538 c-7 -20 11 -58 28 -58 17 0 20 23 5 51 -12 22 -26 25
-33 7z"/>
<path d="M9632 9362 c-7 -2 -24 -22 -38 -43 -29 -47 -40 -48 -146 -13 l-79 27
-67 -18 c-108 -28 -172 -54 -211 -85 -19 -17 -43 -30 -53 -30 -9 0 -19 -4 -22
-9 -3 -5 -23 -12 -43 -16 -21 -4 -56 -18 -79 -31 -45 -27 -116 -49 -183 -59
-45 -7 -78 -23 -121 -61 -14 -12 -43 -25 -65 -29 -22 -3 -52 -18 -66 -31 -17
-16 -41 -26 -67 -29 -23 -2 -52 -11 -64 -19 -12 -9 -30 -16 -39 -16 -10 0 -32
-16 -51 -35 -27 -29 -38 -34 -61 -29 -53 11 -153 -82 -149 -141 2 -19 -4 -37
-13 -45 -8 -7 -15 -18 -15 -24 -1 -6 -14 -27 -30 -46 -18 -20 -30 -46 -30 -63
0 -33 -30 -94 -58 -120 -10 -10 -50 -26 -88 -37 -49 -14 -76 -28 -91 -47 -28
-35 -53 -106 -53 -151 0 -19 -9 -45 -20 -59 -11 -14 -20 -38 -20 -53 0 -26
-44 -127 -90 -210 -84 -151 -141 -313 -133 -382 5 -40 1 -57 -26 -109 l-32
-61 4 -148 c3 -82 8 -154 13 -161 6 -11 13 -59 30 -234 3 -34 13 -190 29 -473
2 -34 9 -95 14 -135 6 -39 13 -155 16 -257 3 -146 10 -213 30 -320 35 -178 44
-258 31 -274 -6 -7 -36 -27 -66 -44 -84 -47 -92 -69 -91 -268 1 -89 -3 -183
-9 -209 -19 -83 -15 -273 8 -382 49 -230 87 -551 87 -733 0 -136 2 -147 24
-185 87 -141 182 -198 325 -193 l79 3 23 -85 c13 -47 23 -97 23 -112 1 -15 10
-51 20 -80 11 -29 22 -73 26 -98 3 -25 14 -70 24 -100 10 -30 29 -93 41 -140
54 -203 166 -444 262 -561 192 -237 388 -469 542 -644 39 -44 143 -152 231
-240 117 -117 176 -169 220 -192 113 -59 370 -110 675 -133 134 -11 176 -10
310 5 85 9 190 23 233 31 185 35 374 107 500 191 69 46 261 200 357 287 39 36
72 64 176 153 12 10 43 36 70 58 216 178 402 366 433 436 13 30 33 77 46 104
12 28 35 93 50 145 15 52 36 114 46 138 11 24 19 54 19 67 0 12 9 51 20 85 12
38 20 90 20 132 0 40 12 126 29 201 46 208 50 235 61 357 9 109 33 202 61 236
6 8 26 14 45 14 42 0 49 12 21 38 -73 67 -72 63 -57 170 7 53 14 126 16 162 3
74 10 156 25 285 19 166 26 329 20 445 -5 86 -3 124 7 150 17 43 18 190 2 231
-10 22 -10 36 -1 57 6 15 11 41 11 57 0 17 4 57 10 90 6 33 11 71 11 85 0 14
7 32 14 40 7 8 18 33 25 55 20 68 91 132 132 119 32 -10 17 18 -18 34 -63 28
-59 16 -59 188 1 88 7 197 14 244 9 57 12 153 10 290 -4 259 -2 316 15 470 7
69 14 139 14 155 0 17 5 65 10 107 5 46 6 95 1 120 -5 24 -13 97 -18 163 -8
109 -22 187 -68 390 -9 39 -29 98 -44 133 -16 35 -29 79 -29 98 0 42 -10 62
-62 131 -21 28 -44 67 -49 87 -5 20 -31 64 -57 99 -47 61 -72 107 -87 157 -10
34 -24 50 -44 50 -22 0 -58 42 -63 71 -2 13 -14 29 -27 35 -13 7 -50 37 -82
68 -61 59 -92 76 -140 76 -36 0 -99 38 -122 74 -10 14 -29 29 -42 32 -14 3
-80 38 -148 76 -107 62 -128 70 -170 69 -41 -1 -53 4 -90 37 -23 20 -50 47
-60 60 -10 12 -25 22 -33 22 -8 0 -29 13 -47 30 -62 57 -105 80 -153 80 -51 0
-98 21 -114 49 -17 32 -112 81 -157 81 -25 0 -46 6 -54 16 -10 12 -24 15 -56
10 -23 -3 -66 -1 -95 4 -29 5 -87 14 -128 21 -41 7 -82 14 -90 16 -8 1 -52 4
-98 7 -77 3 -83 2 -100 -21 -14 -19 -27 -24 -64 -25 -27 0 -58 6 -70 14 -13 8
-52 18 -88 22 -78 10 -240 14 -258 8z m1533 -1459 c19 -9 35 -23 35 -30 0 -7
5 -13 11 -13 6 0 9 6 6 14 -3 8 3 22 14 32 18 17 20 17 34 -2 8 -10 15 -25 15
-31 0 -13 16 -17 58 -13 23 2 31 -15 10 -22 -10 -4 -9 -9 3 -20 12 -12 25 -14
56 -9 54 10 73 -1 73 -44 0 -21 5 -35 13 -36 54 -3 62 -11 71 -66 5 -38 3 -44
-19 -59 -14 -9 -38 -44 -55 -78 -16 -33 -38 -67 -49 -74 -12 -7 -21 -21 -21
-31 0 -11 -4 -23 -10 -26 -5 -3 -10 -13 -10 -21 0 -8 5 -14 10 -14 6 0 10 6
10 14 0 7 13 16 29 19 18 4 32 14 36 27 3 11 13 20 21 20 13 0 16 5 18 40 1 8
20 24 44 35 23 11 42 25 42 33 0 19 28 26 46 11 13 -11 54 -89 54 -103 0 -3
15 -27 33 -53 20 -29 33 -62 35 -83 1 -23 9 -40 22 -49 12 -8 20 -24 20 -42 0
-16 5 -29 11 -29 6 0 8 -7 5 -15 -3 -8 -8 -21 -11 -28 -3 -7 6 -26 20 -41 14
-15 25 -33 25 -41 0 -7 5 -15 12 -17 7 -3 13 -38 16 -94 3 -58 10 -97 21 -113
9 -14 14 -33 13 -43 -2 -10 7 -32 19 -49 24 -34 30 -76 29 -186 -1 -59 2 -73
14 -73 21 0 29 -18 28 -62 -1 -22 7 -56 18 -79 15 -29 22 -65 25 -140 3 -73 8
-106 19 -118 21 -23 20 -37 -1 -53 -42 -32 -55 -55 -43 -78 7 -13 12 -39 12
-59 0 -20 6 -47 13 -61 7 -15 9 -33 4 -45 -16 -42 -8 -142 11 -130 4 3 11 -12
15 -33 3 -20 20 -54 36 -74 25 -32 29 -46 30 -102 1 -36 5 -63 10 -60 5 3 13
-5 18 -18 17 -40 40 -152 39 -184 0 -17 6 -51 15 -75 34 -95 43 -488 10 -456
-3 3 -12 0 -19 -8 -16 -16 -19 -29 -4 -20 6 3 10 1 10 -5 0 -6 -6 -13 -14 -16
-12 -4 -13 -31 -9 -143 4 -114 2 -141 -11 -153 -21 -22 -33 -111 -36 -265 0
-12 -5 -34 -10 -48 -5 -13 -14 -63 -20 -109 -6 -47 -17 -104 -26 -128 -11 -29
-15 -75 -14 -141 1 -100 -13 -157 -37 -157 -19 0 -16 -17 5 -29 9 -6 12 -11 6
-11 -7 0 -14 -9 -17 -20 -9 -35 -37 -24 -37 14 0 33 -20 53 -41 40 -15 -9 -10
-34 6 -34 11 0 15 -11 15 -40 0 -22 5 -40 11 -40 6 0 3 -7 -5 -16 -21 -20 -21
-64 -1 -64 12 0 13 -3 3 -19 -9 -15 -9 -28 1 -60 13 -45 2 -81 -24 -81 -17 0
-22 76 -5 82 6 2 6 8 -1 18 -15 23 -39 -15 -39 -61 0 -21 -6 -40 -12 -42 -9
-4 -10 -8 -2 -14 33 -24 49 -86 34 -124 -9 -20 -8 -34 3 -60 9 -23 11 -44 5
-64 -4 -16 -6 -38 -4 -48 3 -10 -4 -23 -15 -30 -10 -6 -19 -23 -20 -37 l-1
-25 -7 25 c-9 32 -42 37 -66 10 -14 -16 -16 -23 -7 -29 9 -5 7 -12 -8 -26 -31
-28 -26 -68 12 -100 l32 -27 -29 -24 c-28 -22 -30 -28 -33 -106 -2 -46 -2
-114 -2 -152 1 -60 -2 -72 -19 -85 -15 -12 -21 -29 -23 -65 -1 -31 3 -51 10
-54 7 -2 12 -9 12 -16 0 -22 -31 -76 -40 -71 -5 3 -14 -13 -20 -35 -6 -23 -17
-40 -25 -40 -8 0 -15 -9 -15 -19 0 -29 -11 -51 -25 -51 -14 0 -27 -24 -30 -55
-3 -37 -25 -65 -50 -65 -20 0 -25 -5 -25 -25 0 -14 -5 -25 -10 -25 -6 0 -17
-15 -25 -32 -8 -18 -14 -27 -15 -20 0 17 -29 2 -61 -32 -27 -29 -74 -35 -83
-11 -3 8 -1 15 4 15 14 0 12 36 -2 48 -9 7 -22 6 -43 -2 -43 -19 -66 -49 -72
-95 -6 -44 -16 -50 -43 -26 -14 13 -23 13 -46 4 -28 -10 -28 -11 -8 -19 27
-11 35 -31 19 -53 -9 -12 -27 -17 -63 -17 -53 0 -74 -18 -46 -40 20 -17 17
-36 -8 -57 -13 -10 -29 -30 -37 -45 -12 -23 -23 -29 -63 -34 -43 -6 -52 -12
-76 -48 -24 -36 -33 -42 -72 -46 -37 -4 -46 -9 -48 -27 -4 -26 -20 -30 -28 -9
-8 21 -144 19 -144 -1 0 -11 -14 -13 -70 -7 -41 4 -70 3 -70 -3 0 -12 -137 -5
-174 9 -23 9 -31 9 -40 -3 -14 -18 -56 -12 -72 9 -10 14 -28 16 -103 14 -50
-2 -91 0 -91 4 0 4 10 18 22 31 19 20 20 25 8 33 -8 5 -24 7 -35 3 -11 -3 -39
-12 -63 -19 l-42 -13 16 30 c20 39 5 59 -42 59 -30 0 -34 3 -34 25 0 20 -5 25
-25 25 -14 0 -25 -4 -25 -8 0 -13 -48 -32 -65 -26 -17 7 -21 64 -5 64 19 0 10
30 -15 46 -13 9 -27 25 -31 36 -4 15 -12 19 -30 15 -15 -3 -36 4 -56 19 -17
13 -37 24 -44 24 -7 0 -12 8 -12 17 2 31 -45 123 -62 120 -10 -1 -16 8 -18 31
-2 23 1 32 12 32 17 0 11 29 -8 42 -6 4 -6 15 2 32 10 22 9 27 -10 37 -32 17
-57 51 -58 77 0 12 -6 22 -14 22 -15 0 -30 69 -20 94 4 11 0 16 -14 16 -11 0
-22 -6 -25 -12 -2 -7 -8 5 -12 27 -5 26 -4 40 3 43 6 2 9 9 6 16 -6 15 41 56
62 56 15 0 17 8 14 58 -1 21 3 32 12 32 8 0 19 14 25 30 6 17 18 30 27 30 21
0 20 27 -1 39 -17 9 -17 11 0 28 16 16 17 16 17 -10 0 -40 26 -45 58 -11 25
26 42 32 104 35 9 0 24 9 34 20 13 14 30 19 74 19 31 0 72 5 90 11 l33 12 -27
14 c-32 17 -26 33 12 33 15 1 45 9 67 20 24 11 51 16 67 13 16 -3 34 0 42 6
31 26 308 44 397 26 26 -5 38 -3 48 9 8 9 22 16 32 16 10 0 57 9 105 20 83 19
124 19 124 0 0 -5 -17 -14 -38 -19 -43 -12 -80 -36 -70 -46 11 -12 156 25 251
64 24 10 36 20 32 29 -2 7 -1 10 4 7 5 -3 12 -1 16 5 8 12 47 4 97 -21 21 -11
46 -19 58 -19 30 0 26 41 -9 81 -29 33 -30 33 -143 40 -62 5 -149 18 -193 30
-44 12 -125 26 -180 31 -114 10 -126 11 -178 22 -28 6 -43 4 -62 -8 -13 -9
-37 -16 -53 -16 -15 0 -44 -12 -63 -26 -33 -25 -37 -26 -132 -20 -54 3 -114
13 -134 21 -30 13 -39 13 -62 1 -14 -8 -46 -19 -71 -26 -25 -7 -58 -17 -74
-23 -26 -9 -31 -8 -48 16 -22 30 -38 35 -38 12 0 -9 -6 -12 -17 -8 -38 13 -42
23 -25 52 21 37 10 63 -25 59 -24 -3 -28 -8 -31 -40 -2 -26 -10 -41 -24 -49
-30 -16 -45 5 -56 74 -9 56 -8 57 12 51 21 -6 21 -6 1 9 -12 10 -24 12 -29 6
-6 -5 -25 -9 -44 -9 l-35 0 6 -60 c5 -47 4 -62 -7 -66 -27 -10 -56 15 -56 47
0 32 -14 64 -37 87 -11 11 -13 11 -13 -2 0 -9 -13 -28 -30 -43 -31 -28 -38
-51 -19 -70 9 -9 16 -9 30 0 26 16 48 -5 29 -28 -7 -9 -19 -14 -26 -11 -20 8
-26 -25 -8 -39 13 -9 15 -20 10 -46 -4 -19 -9 -56 -11 -84 -4 -37 -11 -54 -27
-67 -23 -18 -23 -19 -4 -33 11 -8 30 -15 42 -15 12 0 24 -6 27 -13 6 -17 -23
-84 -52 -116 -11 -13 -21 -35 -21 -48 0 -13 -7 -26 -15 -29 -8 -4 -12 -11 -8
-17 4 -6 -2 -8 -15 -5 -33 9 -49 -17 -27 -42 10 -11 14 -20 8 -20 -15 0 -42
-66 -36 -88 2 -11 0 -23 -7 -27 -7 -4 -14 1 -17 14 -6 23 -29 29 -35 9 -3 -7
-11 -9 -24 -3 -29 12 -114 16 -114 5 0 -6 -7 -10 -15 -10 -8 0 -15 -4 -15 -10
0 -16 -17 -11 -25 7 -3 10 -1 19 4 21 20 7 11 27 -24 57 -25 22 -36 40 -40 67
-2 21 -9 47 -15 59 -9 17 -8 24 6 40 9 10 12 19 6 19 -17 0 -25 65 -11 91 6
13 27 42 45 64 32 40 44 98 22 111 -4 3 -8 16 -8 30 0 34 -29 43 -49 15 -42
-58 -46 -62 -64 -56 -12 5 -17 18 -17 46 0 27 -5 41 -19 48 -10 6 -21 8 -24 4
-11 -11 -37 19 -37 43 0 26 -20 75 -35 87 -6 5 -4 12 8 21 9 7 17 16 17 19 0
3 -8 7 -17 9 -14 3 -10 7 14 18 43 20 57 51 39 93 -12 30 -11 35 6 57 10 13
18 33 16 44 -3 18 -10 21 -45 20 -32 -2 -42 2 -46 16 -3 12 0 17 8 14 9 -4 14
21 18 93 6 81 4 100 -8 109 -11 8 -15 31 -15 82 0 67 -14 122 -31 122 -4 0
-10 11 -13 25 -6 22 -9 24 -27 14 -18 -9 -20 -8 -18 13 5 44 -23 137 -42 143
-11 4 -23 4 -28 0 -5 -3 -13 -1 -16 5 -5 8 -11 7 -21 -1 -8 -6 -16 -10 -17 -8
-10 15 -27 63 -27 78 0 10 -9 26 -20 36 -14 13 -20 31 -20 64 0 46 -9 71 -26
74 -5 1 -9 11 -10 22 0 11 -8 34 -16 50 -9 17 -14 42 -11 56 2 14 -2 43 -11
64 -9 20 -16 50 -16 65 0 15 -7 33 -15 40 -8 7 -15 19 -15 27 0 7 -7 25 -16
38 -16 25 -16 29 12 141 7 24 -22 42 -40 24 -5 -5 -23 -10 -38 -10 -21 0 -28
5 -28 19 0 11 -12 29 -27 40 -16 11 -22 21 -15 21 8 0 11 7 7 19 -3 10 1 23 9
30 13 11 18 8 33 -16 15 -24 23 -28 43 -23 37 9 31 33 -12 43 -33 8 -38 13
-38 36 0 18 5 28 15 28 8 0 15 -4 15 -9 0 -5 8 -18 18 -28 16 -17 22 -18 55
-8 29 9 42 8 62 -2 26 -14 33 -44 14 -56 -8 -4 -7 -9 2 -15 8 -5 21 1 36 17
45 49 83 22 104 -73 18 -80 31 -87 148 -84 132 3 135 4 139 32 5 34 22 50 44
43 10 -3 30 1 43 10 21 14 23 20 15 41 -7 18 -6 25 3 25 14 0 57 43 57 57 0 5
9 15 19 22 11 8 17 21 13 29 -4 12 2 14 36 10 55 -8 114 13 130 46 15 30 33
33 67 10 32 -21 60 -12 46 14 -7 14 -5 27 10 51 26 43 24 98 -6 156 -13 27
-22 52 -19 57 18 29 126 -19 203 -92 52 -49 80 -68 101 -72 39 -6 25 -23 -37
-43 -77 -25 -87 -35 -37 -36 21 -1 50 -4 64 -8 16 -5 31 -3 41 6 12 10 23 11
45 3 28 -10 30 -15 32 -63 1 -38 -6 -67 -25 -107 -29 -60 -30 -62 -86 -170
-34 -66 -38 -79 -32 -120 4 -25 15 -59 26 -76 19 -31 19 -32 -2 -46 l-21 -14
26 -31 c22 -27 24 -32 11 -43 -8 -7 -15 -19 -15 -26 0 -18 21 -55 39 -70 17
-14 9 -123 -15 -187 -29 -81 -46 -143 -57 -209 -9 -57 -8 -70 6 -92 9 -14 17
-36 17 -48 0 -16 10 -30 30 -41 17 -10 30 -22 30 -27 0 -5 13 -11 30 -15 16
-4 36 -15 43 -25 7 -10 25 -22 39 -25 15 -4 29 -13 32 -21 3 -8 12 -14 20 -14
7 0 16 -7 20 -15 3 -8 14 -15 25 -15 22 0 51 -45 51 -79 0 -11 -9 -25 -20 -31
-29 -15 -25 -30 8 -30 17 0 37 9 48 23 30 34 76 108 71 114 -3 2 -1 18 5 35
l11 30 71 -7 c85 -9 169 -7 200 5 12 4 35 25 51 46 l28 37 -22 19 c-26 20 -87
24 -93 6 -3 -8 -12 -4 -26 10 -12 12 -28 22 -36 22 -8 0 -16 3 -18 8 -1 4 -21
20 -43 37 -71 53 -95 78 -104 109 -18 58 -37 104 -48 118 -21 24 -31 126 -22
217 17 171 21 197 39 241 37 90 38 102 41 362 2 182 0 210 -14 226 -9 10 -17
22 -17 27 0 34 -139 265 -160 265 -5 0 -29 17 -54 39 -25 21 -60 41 -80 45
-21 4 -40 15 -47 27 -8 15 -18 20 -35 16 -15 -2 -30 3 -41 15 -20 23 -61 41
-126 58 -27 7 -52 21 -58 31 -5 11 -18 19 -29 19 -10 0 -22 5 -25 10 -3 6 -28
10 -54 10 -26 0 -52 5 -59 12 -7 7 -45 13 -89 13 -110 3 -197 10 -211 19 -7 4
-12 13 -12 21 0 20 -31 27 -50 10 -23 -21 -57 -19 -70 5 -15 28 -70 28 -70 1
0 -13 9 -21 30 -26 37 -8 30 -25 -10 -25 -51 0 -64 59 -23 102 24 25 24 29 12
57 -8 17 -17 31 -21 31 -5 0 -8 5 -8 10 0 6 7 10 16 10 8 0 12 5 9 10 -8 13
-85 13 -85 1 0 -5 9 -11 20 -13 36 -6 5 -31 -44 -35 l-46 -5 0 36 c0 24 5 36
14 36 11 0 13 13 9 62 l-6 61 24 -24 24 -24 5 30 c3 17 0 49 -7 73 -6 23 -9
42 -5 42 4 0 16 7 26 15 15 12 17 17 7 29 -7 8 -10 20 -6 26 3 5 3 20 0 31 -6
17 -9 19 -16 8 -6 -10 -9 -6 -9 15 0 38 21 106 32 106 5 0 8 15 6 33 -3 29 -1
32 25 32 26 -1 27 2 27 45 0 39 4 47 29 61 26 15 28 21 30 80 1 35 6 66 11 69
5 3 -4 32 -20 64 -28 55 -29 59 -14 88 13 26 14 35 3 55 -10 19 -10 28 -1 43
7 12 12 57 12 110 0 72 3 90 14 90 18 0 29 16 21 30 -4 7 -13 6 -26 -1 -12 -6
-23 -8 -26 -5 -8 8 19 147 32 160 6 6 17 38 25 71 17 75 54 114 135 145 33 12
70 27 82 33 12 5 40 10 63 11 33 0 45 -4 59 -23 18 -23 20 -24 80 -12 34 7
133 14 219 17 86 2 158 8 161 13 6 9 70 24 109 26 13 0 28 9 33 18 6 9 23 24
39 32 17 9 30 22 30 30 0 17 30 35 59 35 12 0 21 3 21 8 0 4 15 24 33 45 31
36 33 37 82 31 28 -4 47 -3 42 1 -4 5 0 16 9 26 14 15 21 16 72 4 33 -8 61
-10 66 -5 5 5 17 5 29 -1 13 -8 22 -8 30 0 16 16 42 14 57 -4 18 -21 38 -19
45 6 5 15 1 25 -13 35 -25 17 -34 50 -17 64 9 7 23 6 49 -5 42 -18 60 -12 52
18 -3 12 -1 27 5 33 14 18 39 6 39 -18 0 -15 4 -18 22 -12 12 3 28 13 36 20
19 19 35 7 29 -23 -3 -18 0 -23 12 -21 18 4 58 73 63 110 3 21 8 23 63 25 92
2 142 13 161 34 19 21 44 25 61 8 13 -13 53 5 53 23 0 9 3 9 12 0 21 -21 46
-13 88 24 29 26 40 32 40 20 0 -10 9 -16 25 -16 18 0 25 5 25 20 0 20 15 26
80 33 19 2 36 5 37 5 1 1 18 -6 38 -15z m245 -13 c0 -5 -5 -10 -11 -10 -5 0
-7 5 -4 10 3 6 8 10 11 10 2 0 4 -4 4 -10z m-980 -165 c0 -9 -6 -12 -15 -9 -8
4 -12 10 -9 15 8 14 24 10 24 -6z m-2024 -1346 c18 -20 18 -21 -6 -40 -14 -10
-19 -19 -12 -19 6 0 12 -9 12 -20 0 -14 11 -22 39 -30 72 -19 61 -77 -19 -101
-31 -9 -42 -8 -63 6 -14 9 -31 14 -37 10 -18 -11 -10 21 10 40 24 21 26 53 5
61 -25 10 -20 78 8 97 30 21 41 21 63 -4z m3724 -689 c0 -5 -5 -10 -11 -10 -5
0 -7 5 -4 10 3 6 8 10 11 10 2 0 4 -4 4 -10z m-3364 -454 c27 -8 72 -18 99
-22 28 -3 89 -19 138 -35 48 -16 98 -29 110 -29 13 0 31 -6 41 -13 15 -11 15
-15 4 -23 -15 -12 -135 -29 -315 -44 -68 -6 -149 -16 -180 -21 -32 -6 -80 -15
-106 -19 -49 -9 -77 -5 -77 11 0 4 -6 6 -13 3 -8 -3 -18 6 -25 21 -18 40 -15
47 17 40 50 -11 46 21 -9 58 l-24 17 42 0 c36 0 44 4 54 25 10 22 18 25 62 25
28 0 58 5 66 10 21 14 58 12 116 -4z m280 -311 c9 -21 -14 -45 -42 -45 -16 0
-24 6 -24 18 0 37 54 59 66 27z m-298 -12 c-2 -9 -10 -17 -19 -18 -9 -2 -26
-6 -38 -10 -29 -9 -28 17 2 31 35 18 59 16 55 -3z m2 -91 c0 -4 18 -29 40 -56
22 -26 37 -52 34 -57 -8 -14 -61 -11 -76 4 -49 50 -64 152 -18 127 11 -6 20
-14 20 -18z m946 -1377 c48 -50 54 -65 26 -65 -22 0 -92 62 -92 82 0 14 9 28
18 28 2 0 24 -20 48 -45z m2418 -20 c-4 -8 -10 -12 -15 -9 -14 8 -10 24 6 24
9 0 12 -6 9 -15z m-1886 -687 c-3 -7 -11 -13 -18 -13 -7 0 -15 6 -17 13 -3 7
4 12 17 12 13 0 20 -5 18 -12z m-40 -30 c-3 -7 -13 -13 -23 -13 -10 0 -20 6
-22 13 -3 7 5 12 22 12 17 0 25 -5 23 -12z m312 -17 c18 -5 21 -9 10 -13 -26
-9 -83 -3 -87 10 -5 13 34 15 77 3z m1427 -43 c-3 -8 -6 -5 -6 6 -1 11 2 17 5
13 3 -3 4 -12 1 -19z m-4 -77 c3 -14 0 -17 -14 -14 -15 4 -17 8 -8 19 15 18
16 18 22 -5z m-3233 -71 c0 -5 -4 -10 -10 -10 -5 0 -10 5 -10 10 0 6 5 10 10
10 6 0 10 -4 10 -10z m720 -190 c0 -5 -4 -10 -9 -10 -6 0 -13 5 -16 10 -3 6 1
10 9 10 9 0 16 -4 16 -10z m199 -899 c9 -6 14 -24 13 -45 -1 -24 5 -43 18 -56
19 -19 18 -50 -1 -50 -16 0 -81 70 -76 82 2 7 0 21 -5 31 -19 37 14 61 51 38z
m114 -151 c-3 -11 -1 -20 3 -20 5 0 15 -4 23 -9 12 -8 12 -12 2 -25 -14 -17
-36 -22 -26 -7 3 5 1 12 -5 16 -5 3 -10 17 -10 30 0 13 -6 26 -12 28 -7 3 -3
6 9 6 16 1 20 -3 16 -19z"/>
<path d="M11390 7726 c0 -9 5 -16 10 -16 6 0 10 4 10 9 0 6 -4 13 -10 16 -5 3
-10 -1 -10 -9z"/>
<path d="M11403 7673 c-18 -7 -16 -30 3 -37 26 -10 34 -7 34 14 0 12 5 17 14
14 8 -3 17 -1 21 5 6 11 -48 14 -72 4z"/>
<path d="M11460 7630 c0 -5 5 -10 10 -10 6 0 10 5 10 10 0 6 -4 10 -10 10 -5
0 -10 -4 -10 -10z"/>
<path d="M11430 7565 c0 -8 7 -15 15 -15 9 0 12 6 9 15 -4 8 -10 15 -15 15 -5
0 -9 -7 -9 -15z"/>
<path d="M11148 5583 c7 -3 16 -2 19 1 4 3 -2 6 -13 5 -11 0 -14 -3 -6 -6z"/>
<path d="M10915 5550 c-16 -5 -56 -14 -87 -20 -32 -6 -58 -15 -58 -19 0 -4
-11 -13 -24 -19 -13 -6 -23 -18 -23 -28 2 -17 -7 -23 -88 -61 -55 -25 -112
-80 -99 -93 8 -8 20 -7 40 1 35 15 142 30 203 30 25 0 50 3 55 8 12 8 65 25
136 41 89 22 110 31 110 50 0 10 9 21 19 25 11 3 25 12 31 20 11 13 7 15 -20
15 -23 0 -33 -5 -37 -19 -4 -18 -30 -31 -61 -31 -18 0 -32 42 -20 58 6 6 23
12 39 12 19 0 29 5 29 15 0 10 -10 15 -29 15 -16 0 -41 2 -57 4 -16 3 -42 1
-59 -4z"/>
<path d="M11293 5543 c-23 -9 -13 -23 16 -23 16 0 31 6 35 15 4 11 -1 15 -17
14 -12 0 -28 -3 -34 -6z"/>
<path d="M11661 5526 c-11 -13 -11 -16 3 -16 9 0 16 -7 16 -16 0 -14 -3 -14
-15 -4 -12 10 -19 10 -27 2 -8 -8 -4 -13 16 -18 36 -9 46 4 31 39 -10 25 -13
26 -24 13z"/>
<path d="M11710 5454 c-11 -13 -10 -16 8 -21 12 -3 19 -9 17 -14 -3 -4 -12 -6
-19 -3 -7 3 -18 -2 -25 -10 -10 -12 -8 -18 14 -32 15 -10 31 -29 36 -42 8 -21
13 -24 42 -17 40 9 55 9 86 -1 23 -7 24 -6 17 26 -8 41 -28 64 -69 81 -18 7
-43 21 -56 31 -29 22 -35 22 -51 2z"/>
<path d="M10440 5229 c0 -5 5 -7 10 -4 6 3 10 8 10 11 0 2 -4 4 -10 4 -5 0
-10 -5 -10 -11z"/>
<path d="M10552 5233 c-15 -6 -6 -23 14 -23 8 0 14 7 14 15 0 15 -6 17 -28 8z"/>
<path d="M10639 5212 c-11 -8 -26 -12 -33 -9 -7 3 -18 -4 -24 -14 -14 -23 -50
-25 -58 -4 -4 8 -12 15 -20 15 -19 0 -18 -29 2 -37 14 -5 13 -8 -7 -18 -13 -7
-30 -10 -38 -7 -10 4 -13 1 -8 -10 5 -16 -14 -27 -54 -33 -28 -4 -39 -15 -39
-42 0 -23 3 -25 28 -19 15 3 43 9 62 13 33 6 34 6 17 -11 -21 -22 -16 -32 20
-39 31 -6 76 17 131 68 46 42 129 85 163 85 16 0 29 -1 29 -2 0 -2 -7 -25 -15
-52 -25 -82 -20 -122 20 -164 19 -20 35 -43 35 -49 0 -24 64 -46 137 -49 l73
-3 50 51 c28 29 54 65 57 80 3 16 10 31 14 34 5 3 9 30 9 60 0 43 3 54 16 54
24 0 113 -79 120 -106 8 -31 32 -44 79 -44 32 0 36 -3 33 -22 -3 -26 -38 -45
-92 -52 -50 -6 -62 -19 -14 -15 20 2 40 0 44 -4 12 -12 41 -8 53 7 7 8 20 12
30 9 11 -3 28 4 40 16 24 24 56 28 64 7 6 -16 70 -12 75 4 2 6 12 10 23 10 12
0 19 7 19 20 0 11 5 20 10 20 26 0 -5 50 -32 50 -7 0 -26 14 -42 30 -16 16
-37 32 -47 35 -11 4 -19 10 -19 15 0 13 -125 71 -164 76 -19 2 -47 9 -61 14
-89 34 -646 60 -686 32z m400 -126 c27 -33 -27 -72 -58 -41 -15 15 -14 18 8
36 28 23 35 23 50 5z"/>
<path d="M10321 4980 c0 -33 1 -34 10 -11 6 16 6 28 -1 35 -7 7 -10 -1 -9 -24z"/>
<path d="M10525 4943 c-39 -10 -37 -22 4 -33 44 -12 86 0 78 23 -4 13 -49 18
-82 10z"/>
<path d="M10455 4920 c3 -5 10 -10 16 -10 5 0 9 5 9 10 0 6 -7 10 -16 10 -8 0
-12 -4 -9 -10z"/>
<path d="M12200 4720 c0 -5 4 -10 9 -10 6 0 13 5 16 10 3 6 -1 10 -9 10 -9 0
-16 -4 -16 -10z"/>
<path d="M8888 4653 c6 -2 18 -2 25 0 6 3 1 5 -13 5 -14 0 -19 -2 -12 -5z"/>
<path d="M10297 3640 c-63 -45 -76 -68 -51 -87 23 -17 54 -17 54 0 0 29 36 47
93 47 73 0 75 18 8 54 l-49 25 -55 -39z"/>
<path d="M10493 3565 c-7 -7 -11 -23 -10 -34 1 -22 1 -22 19 1 10 13 18 26 18
30 0 14 -15 16 -27 3z"/>
<path d="M12071 3534 c0 -11 3 -14 6 -6 3 7 2 16 -1 19 -3 4 -6 -2 -5 -13z"/>
<path d="M10452 3499 c-7 -12 -11 -24 -7 -27 7 -8 25 17 25 36 0 17 -3 15 -18
-9z"/>
<path d="M8710 3220 c-21 -21 -18 -45 6 -54 34 -13 75 34 53 60 -16 19 -36 17
-59 -6z"/>
<path d="M9671 3081 c-22 -14 -4 -33 20 -21 11 6 17 15 14 21 -8 11 -16 11
-34 0z"/>
<path d="M11883 2868 c14 -22 23 -23 30 -4 4 9 -3 16 -18 18 -20 4 -22 3 -12
-14z"/>
<path d="M8667 2813 c-10 -9 -9 -41 2 -47 4 -3 16 1 27 8 15 12 16 16 5 30
-15 17 -24 20 -34 9z"/>
<path d="M8914 2689 c14 -17 26 -35 26 -40 0 -16 50 -10 57 7 9 24 -40 64 -77
64 l-32 0 26 -31z"/>
<path d="M11741 2680 c-10 -6 -10 -12 -1 -30 11 -21 12 -21 25 -3 8 10 15 21
15 24 0 11 -26 18 -39 9z"/>
<path d="M8960 2560 c0 -6 7 -10 15 -10 8 0 15 2 15 4 0 2 -7 6 -15 10 -8 3
-15 1 -15 -4z"/>
<path d="M10560 2551 c0 -6 -6 -11 -14 -11 -17 0 -29 -27 -16 -35 13 -8 30 3
30 20 0 7 5 15 12 17 9 3 9 6 0 12 -7 4 -12 2 -12 -3z"/>
<path d="M10077 2293 c-15 -8 -25 -18 -22 -23 9 -15 68 -12 90 3 17 13 16 15
-12 24 -22 8 -36 7 -56 -4z"/>
<path d="M9695 1430 c3 -5 13 -10 21 -10 8 0 14 5 14 10 0 6 -9 10 -21 10 -11
0 -17 -4 -14 -10z"/>
<path d="M9868 1313 c7 -3 16 -2 19 1 4 3 -2 6 -13 5 -11 0 -14 -3 -6 -6z"/>
<path d="M10240 1175 c0 -8 7 -15 15 -15 8 0 15 7 15 15 0 8 -7 15 -15 15 -8
0 -15 -7 -15 -15z"/>
<path d="M3075 9260 c-3 -5 -1 -10 4 -10 6 0 11 5 11 10 0 6 -2 10 -4 10 -3 0
-8 -4 -11 -10z"/>
<path d="M3040 9250 c0 -5 5 -10 10 -10 6 0 10 5 10 10 0 6 -4 10 -10 10 -5 0
-10 -4 -10 -10z"/>
<path d="M2968 9223 c7 -3 16 -2 19 1 4 3 -2 6 -13 5 -11 0 -14 -3 -6 -6z"/>
<path d="M2630 9140 c-8 -16 -8 -22 4 -26 17 -7 68 24 60 37 -10 17 -53 9 -64
-11z"/>
<path d="M2521 9101 c-26 -20 -21 -41 10 -41 32 0 59 19 59 40 0 26 -36 26
-69 1z"/>
<path d="M2135 8829 c-4 -6 -5 -13 -2 -16 7 -7 27 6 27 18 0 12 -17 12 -25 -2z"/>
<path d="M1880 8685 c0 -8 7 -15 15 -15 8 0 15 7 15 15 0 8 -7 15 -15 15 -8 0
-15 -7 -15 -15z"/>
<path d="M4435 5740 c-7 -11 39 -25 55 -15 5 3 8 11 5 16 -8 12 -52 12 -60 -1z"/>
<path d="M2166 5694 c-21 -19 -26 -28 -17 -37 8 -8 11 -7 11 6 0 22 44 23 85
1 32 -17 199 -46 276 -48 25 -1 53 -7 62 -14 9 -8 40 -17 69 -21 74 -12 133
-38 119 -55 -6 -7 -25 -11 -43 -9 -18 1 -27 0 -20 -3 6 -3 12 -12 12 -19 0
-14 57 -35 94 -35 11 0 27 -6 35 -13 9 -8 39 -21 67 -29 27 -9 67 -28 89 -42
21 -14 41 -26 44 -26 10 0 45 -69 38 -76 -3 -3 -10 3 -16 14 -6 11 -25 23 -41
27 -17 4 -36 15 -43 26 -8 12 -23 19 -43 19 -17 0 -37 6 -43 14 -6 7 -21 11
-34 9 -24 -5 -166 57 -187 82 -7 8 -23 15 -36 15 -12 0 -26 4 -29 10 -13 20
-302 -9 -357 -37 -15 -7 -38 -11 -51 -8 -15 4 -35 -2 -60 -19 -21 -15 -44 -26
-52 -26 -14 0 -75 -24 -105 -41 -8 -5 -30 -15 -47 -23 -18 -8 -38 -26 -45 -40
-6 -15 -14 -26 -19 -26 -4 0 -14 -18 -23 -39 -8 -22 -24 -44 -34 -50 -10 -5
-24 -21 -32 -35 -19 -36 -66 -36 -82 -1 -13 30 -38 32 -61 7 -22 -24 -21 -30
6 -34 12 -2 26 -13 32 -25 15 -35 63 -30 126 12 39 27 54 33 60 23 11 -17 -2
-30 -75 -77 -49 -32 -72 -41 -107 -41 -24 -1 -55 -7 -69 -15 -14 -8 -35 -14
-46 -15 -12 0 -27 -7 -34 -15 -14 -17 1 -21 88 -28 62 -5 76 -16 77 -60 0 -43
24 -46 63 -7 17 16 35 30 41 30 7 0 16 12 21 28 20 53 35 75 60 84 14 5 33 25
44 47 17 36 17 40 2 63 -15 23 -15 26 4 43 16 14 19 26 14 48 -3 17 -1 39 7
54 13 25 122 103 143 103 6 0 13 -14 14 -31 2 -23 -2 -32 -17 -36 -19 -5 -61
-63 -61 -83 0 -5 15 -9 33 -8 19 1 39 -2 44 -5 6 -4 16 -1 22 7 9 10 8 15 -4
20 -24 9 -20 65 6 74 18 7 19 10 5 21 -19 16 -10 41 14 41 11 0 22 5 25 10 14
23 30 8 32 -30 2 -22 8 -51 15 -63 6 -12 14 -35 17 -52 5 -21 17 -35 41 -48
74 -39 256 2 309 69 19 24 30 94 15 94 -4 0 -22 -13 -41 -30 -43 -38 -63 -38
-92 1 -19 26 -21 35 -12 55 15 34 35 39 75 20 19 -9 39 -16 44 -16 14 0 24 33
16 53 -10 27 60 9 152 -40 46 -23 90 -43 98 -43 18 0 37 -31 39 -67 3 -34 24
-42 29 -11 2 15 11 24 26 26 18 3 22 -1 22 -22 0 -25 7 -29 65 -38 42 -7 23
-88 -20 -88 -35 0 -47 -21 -33 -57 10 -26 9 -35 -6 -58 -13 -20 -15 -30 -7
-38 19 -19 13 -72 -10 -93 -20 -18 -79 -100 -79 -110 0 -2 10 -4 23 -4 13 0
31 -6 41 -13 15 -11 16 -17 7 -34 -8 -16 -8 -23 2 -26 7 -4 6 -6 -4 -6 -33 -2
-33 -61 0 -61 13 0 13 -2 2 -9 -8 -5 -11 -16 -8 -24 5 -13 -9 -106 -29 -189
-5 -22 -3 -28 10 -28 9 0 16 -6 16 -14 0 -8 4 -16 9 -18 4 -1 10 -27 13 -56 4
-43 2 -57 -12 -70 -10 -10 -24 -36 -31 -60 -7 -23 -23 -55 -37 -69 -13 -15
-24 -38 -24 -51 0 -14 -11 -41 -24 -60 -23 -33 -54 -120 -54 -149 0 -7 -4 -13
-10 -13 -5 0 -10 -8 -10 -17 0 -9 -9 -26 -20 -38 -21 -23 -18 -55 5 -55 12 0
25 -21 25 -42 0 -5 -15 -8 -33 -7 -58 5 -76 -27 -37 -69 11 -12 21 -31 23 -43
2 -18 -7 -25 -52 -40 -30 -11 -57 -17 -59 -14 -3 3 0 5 6 5 7 0 12 4 12 9 0
19 -74 -12 -99 -42 -14 -17 -34 -38 -43 -47 -23 -22 -78 -102 -78 -116 0 -6
-9 -19 -19 -28 -11 -10 -27 -41 -36 -69 -28 -89 -43 -114 -77 -128 -18 -7 -44
-24 -58 -36 -14 -13 -33 -23 -44 -23 -14 0 -16 -3 -8 -12 27 -33 26 -152 -1
-130 -16 13 -56 -7 -71 -36 -7 -14 -16 -18 -24 -13 -10 6 -11 22 -3 71 6 35 8
66 5 69 -3 3 -17 -1 -32 -10 -28 -15 -48 -47 -57 -91 -7 -35 -23 -36 -35 -2
-11 27 -2 52 30 89 26 29 33 70 15 85 -8 7 -15 21 -15 32 0 11 -8 22 -19 25
-20 5 -32 26 -51 91 -7 23 -17 42 -22 42 -4 0 -8 -28 -8 -62 0 -35 -6 -74 -13
-88 -13 -27 -55 -39 -67 -20 -9 15 -63 -67 -56 -86 4 -10 14 -12 31 -8 19 5
25 2 25 -10 0 -9 5 -16 11 -16 6 0 8 -15 4 -44 -9 -56 8 -68 41 -29 16 18 24
38 23 58 -3 36 21 95 37 95 23 0 25 -34 4 -62 -11 -15 -20 -34 -20 -42 0 -33
-35 -126 -46 -122 -16 6 -44 -58 -44 -102 0 -21 -4 -42 -9 -48 -10 -10 -14
-35 -12 -72 l1 -23 28 20 c15 11 38 22 51 26 21 6 23 5 16 -11 -4 -11 -11 -40
-15 -67 -3 -26 -12 -53 -18 -59 -22 -22 -14 -48 13 -48 30 0 30 -2 5 -75 -25
-73 -25 -69 6 -98 14 -14 30 -43 35 -68 13 -57 34 -89 60 -89 26 0 53 -26 45
-45 -3 -8 -13 -15 -22 -15 -22 0 -13 -23 14 -35 12 -5 22 -18 22 -27 0 -10 4
-18 10 -18 5 0 28 -16 50 -36 32 -29 40 -43 40 -70 0 -19 5 -34 11 -34 13 0
77 -70 85 -94 12 -37 102 -132 138 -146 13 -5 26 -21 30 -36 8 -32 32 -53 61
-54 11 0 35 -17 55 -38 19 -22 45 -44 58 -51 12 -6 22 -17 22 -23 0 -14 39
-48 55 -48 6 0 20 -16 31 -35 10 -19 22 -35 26 -35 12 0 78 -48 116 -85 20
-19 40 -35 44 -35 5 0 27 -13 49 -30 23 -16 58 -32 78 -36 60 -10 70 -14 76
-35 4 -10 15 -19 26 -19 11 0 22 -6 25 -14 3 -8 24 -17 47 -21 87 -13 104 -23
112 -62 6 -32 36 -73 54 -73 3 0 12 9 19 21 10 16 10 24 1 35 -18 21 7 46 40
39 14 -3 86 -7 159 -10 107 -5 132 -3 132 8 0 11 28 13 139 13 77 -1 143 -5
147 -9 15 -14 54 -7 64 13 6 11 21 20 35 20 13 0 27 5 31 11 3 6 15 8 26 5 12
-3 32 4 48 15 31 23 87 38 143 39 32 0 44 7 74 40 26 29 44 40 65 40 17 0 28
5 28 14 0 9 24 22 57 33 54 18 59 23 71 61 11 34 18 42 38 42 19 0 29 8 40 35
8 20 21 38 29 42 8 3 15 10 15 15 0 18 74 85 101 91 17 4 34 22 52 55 14 27
37 54 51 60 18 8 26 20 28 44 2 28 7 33 28 34 36 0 66 24 74 59 4 18 31 53 67
86 32 31 64 70 70 87 6 18 15 32 20 32 5 0 23 25 40 55 17 31 40 62 51 69 20
14 45 54 74 118 9 21 25 40 34 43 22 7 72 84 115 177 18 40 45 87 59 103 14
17 26 37 26 45 0 9 6 24 14 35 7 11 23 54 36 95 12 41 31 84 41 95 12 14 20
42 24 90 4 55 3 64 -5 44 -6 -15 -20 -29 -30 -32 -15 -4 -20 -14 -20 -36 0
-25 -4 -31 -21 -31 -18 0 -20 4 -15 28 4 15 14 32 22 38 20 16 18 22 -8 26
-17 2 -23 10 -23 30 0 15 -10 36 -21 47 -12 10 -32 36 -44 56 -17 27 -25 33
-31 23 -10 -17 -2 -54 22 -94 11 -17 19 -43 19 -58 0 -23 -4 -27 -22 -24 -22
3 -23 0 -20 -60 3 -58 1 -63 -21 -71 -20 -8 -25 -19 -31 -60 -8 -58 -23 -74
-32 -34 -15 71 -26 93 -45 93 -22 0 -26 -29 -7 -48 9 -9 5 -19 -20 -43 -26
-26 -30 -34 -21 -51 6 -10 17 -22 25 -25 8 -3 14 -12 14 -20 0 -8 -5 -11 -10
-8 -6 4 -18 1 -26 -6 -17 -14 -12 -66 8 -99 10 -15 10 -22 1 -31 -9 -9 -25 2
-68 45 -54 54 -56 58 -46 87 11 33 0 69 -20 69 -8 0 -9 -25 -4 -80 6 -71 5
-81 -11 -87 -10 -4 -19 -2 -22 5 -7 23 -22 1 -22 -34 0 -27 4 -34 20 -34 22 0
22 0 26 -47 2 -29 -1 -33 -22 -33 -33 0 -33 -42 0 -64 35 -22 39 -47 16 -97
-11 -24 -20 -36 -20 -26 0 25 -18 21 -22 -5 -2 -17 -11 -24 -32 -26 -29 -4
-31 -15 -11 -79 6 -20 4 -23 -19 -23 -16 0 -31 9 -42 25 -23 36 -32 31 -36
-17 -3 -40 -5 -43 -30 -40 -25 2 -27 1 -21 -33 8 -51 -21 -59 -56 -17 -38 47
-54 41 -69 -21 -6 -29 -12 -59 -12 -67 0 -8 -12 -26 -25 -39 -14 -13 -25 -34
-25 -48 0 -23 -3 -25 -28 -20 -40 8 -56 -4 -37 -29 25 -33 19 -61 -15 -66 -16
-3 -30 -2 -30 2 0 4 -10 12 -22 19 -13 6 -31 30 -40 51 -9 22 -22 40 -30 40
-7 -1 -26 -21 -42 -46 -19 -31 -32 -42 -39 -35 -7 7 -6 19 2 40 7 16 11 38 9
48 -3 16 -6 15 -30 -8 -35 -35 -58 -24 -41 20 8 24 8 31 -3 35 -19 7 -22 -1
-23 -69 0 -50 5 -67 30 -107 22 -34 30 -57 28 -82 -2 -20 2 -41 9 -48 18 -18
15 -43 -9 -64 l-21 -19 7 38 c6 33 5 37 -13 37 -14 0 -32 16 -52 45 -17 25
-35 45 -41 45 -5 0 -14 11 -18 24 -11 26 -51 43 -51 20 0 -9 -11 -14 -29 -14
-39 0 -49 33 -15 49 28 12 29 19 9 45 -13 18 -16 18 -32 4 -10 -9 -27 -18 -37
-19 -11 -2 -20 -11 -22 -19 -2 -8 -10 -36 -19 -61 -14 -39 -20 -46 -42 -45
-21 1 -29 9 -38 36 -14 41 -49 54 -59 22 -4 -11 -16 -22 -26 -25 -15 -4 -20
-14 -20 -41 0 -45 -12 -45 -44 -3 -19 25 -26 46 -26 78 0 58 9 90 24 82 6 -3
-4 10 -23 30 -38 40 -55 39 -49 -3 3 -22 -1 -31 -20 -42 -21 -11 -26 -11 -30
0 -7 21 -44 52 -69 59 -28 6 -53 -12 -53 -38 0 -11 -7 -19 -15 -19 -20 0 -19
6 10 44 29 37 32 77 9 97 -22 18 -84 -15 -84 -45 -1 -16 -4 -13 -15 11 -16 37
-18 38 -44 21 -10 -6 -26 -8 -35 -5 -15 6 -17 16 -11 74 4 52 3 64 -5 51 -17
-27 -44 -23 -36 4 3 13 6 30 6 39 0 11 12 19 34 23 18 4 41 15 51 26 20 22 35
18 35 -9 0 -9 7 -26 15 -37 15 -18 16 -18 44 15 16 18 34 30 39 27 15 -9 74
51 70 71 -2 12 -16 20 -41 24 -46 7 -53 14 -37 34 11 14 11 21 -4 45 -14 25
-15 36 -6 70 12 44 7 60 -16 60 -8 0 -17 13 -21 30 -3 17 -10 33 -14 36 -5 3
-9 16 -9 29 0 13 -4 26 -9 29 -5 4 -6 18 -2 34 10 34 -4 67 -36 81 -13 6 -22
15 -19 19 7 12 -31 71 -50 79 -8 3 -25 1 -37 -5 -12 -5 -41 -15 -64 -22 -24
-7 -43 -17 -43 -21 0 -5 -17 -11 -37 -15 -43 -8 -93 -41 -93 -61 0 -7 3 -13 8
-13 4 0 14 -5 22 -10 12 -7 11 -13 -10 -35 -22 -23 -25 -35 -23 -90 2 -35 -1
-66 -6 -69 -20 -13 -36 29 -36 93 0 71 -14 92 -29 41 -11 -38 -30 -34 -34 8
-3 26 1 34 22 43 34 16 78 82 74 110 -3 22 -6 21 -50 -21 -27 -24 -48 -49 -48
-55 0 -6 -11 -21 -25 -33 -25 -22 -34 -65 -15 -77 6 -3 10 -20 10 -38 l0 -31
-29 34 c-29 34 -30 35 -45 15 -15 -19 -15 -18 -6 10 5 17 14 50 21 75 7 25 19
55 27 68 14 21 13 24 -7 38 -25 18 -27 37 -6 54 21 17 19 30 -5 30 -23 0 -26
22 -6 39 8 7 17 22 20 35 5 20 15 26 69 35 35 6 71 11 79 11 9 0 19 6 21 13 4
7 6 6 6 -4 1 -9 9 -23 18 -30 15 -13 16 -11 10 16 -7 40 5 63 23 43 11 -12 18
-10 43 13 16 15 27 32 23 37 -3 5 1 12 9 16 8 3 12 12 9 20 -10 27 68 39 204
32 124 -7 222 2 327 29 154 41 257 43 404 8 36 -9 109 -17 161 -18 52 -1 117
-5 144 -9 36 -7 50 -5 56 5 11 17 3 29 -20 29 -10 0 -30 14 -43 30 -18 21 -35
30 -55 30 -16 0 -49 10 -73 23 -38 19 -51 21 -97 13 -49 -8 -55 -7 -80 17 -23
22 -33 25 -71 20 -28 -4 -42 -2 -38 4 3 5 1 10 -6 11 -7 1 -27 5 -44 8 -43 8
-43 -9 0 -21 63 -19 33 -30 -98 -36 -71 -3 -131 -7 -132 -8 -1 0 -9 -8 -18
-18 -12 -11 -39 -17 -95 -20 -90 -4 -127 7 -140 42 -9 25 -27 32 -89 39 -45 5
-76 36 -67 70 8 32 21 35 175 40 70 2 128 9 134 15 6 6 17 11 25 11 8 0 29 7
48 16 32 15 38 15 92 -2 62 -20 79 -20 103 2 21 19 46 18 57 -2 12 -22 46 -10
60 22 7 14 12 44 12 67 1 36 2 39 12 22 16 -29 16 -29 33 -15 19 16 19 54 0
70 -8 7 -15 23 -15 36 0 13 -5 24 -11 24 -14 0 -88 81 -89 98 0 7 -13 12 -30
12 -25 0 -30 4 -30 23 0 37 -38 64 -102 72 -55 6 -59 5 -85 -24 -16 -16 -40
-33 -55 -36 -15 -4 -32 -13 -39 -21 -6 -8 -18 -14 -26 -14 -7 0 -25 -7 -39
-17 -23 -15 -27 -15 -41 0 -14 14 -12 19 21 51 41 42 43 47 18 69 -22 20 -42
21 -77 5 -21 -9 -31 -9 -47 1 -24 15 -36 7 -20 -12 26 -31 -27 -37 -73 -8 -31
20 -47 33 -153 129 -80 71 -116 89 -195 95 -34 2 -72 8 -84 12 -20 6 -23 4
-23 -19 0 -30 -23 -44 -44 -27 -20 16 -26 79 -12 126 8 28 32 60 82 110 112
110 141 185 84 218 -57 34 -63 78 -17 128 14 14 27 43 30 65 6 47 55 186 68
194 5 4 18 42 30 86 11 43 27 93 35 109 32 70 58 237 58 380 0 182 -4 203 -53
238 -46 32 -177 60 -282 61 -40 1 -72 6 -82 14 -12 10 -31 12 -66 7 -36 -5
-57 -2 -80 9 -17 9 -41 14 -54 11 -13 -4 -48 3 -78 14 -70 25 -85 27 -136 12
-30 -8 -49 -9 -62 -1 -11 5 -35 10 -54 10 -19 0 -53 7 -77 15 -23 8 -57 12
-75 9 -23 -3 -36 -1 -42 10 -7 12 -13 10 -37 -10z m735 -174 c21 0 39 -4 39
-9 0 -14 -68 -23 -90 -11 -24 13 -27 35 -4 26 9 -3 33 -6 55 -6z m-726 -2669
c-3 -6 -11 -11 -17 -11 -6 0 -6 6 2 15 14 17 26 13 15 -4z m189 -27 c11 -41
-4 -144 -21 -144 -21 0 -27 28 -9 45 20 20 21 17 -9 51 -28 32 -30 45 -13 62
20 20 45 14 52 -14z m-385 -6 c11 -10 14 -10 18 0 3 6 14 12 25 12 15 0 18 -4
13 -17 -4 -10 -15 -38 -24 -62 -18 -49 -41 -66 -41 -31 0 12 -7 34 -16 50 -25
42 -6 77 25 48z m127 -60 c-1 -33 -13 -51 -28 -42 -13 8 -9 42 8 58 21 21 21
21 20 -16z m-197 3 c14 -9 10 -42 -8 -70 -20 -32 -41 21 -25 63 7 18 13 19 33
7z m320 -78 c18 -5 -5 -33 -28 -33 -9 0 -25 -7 -36 -16 -16 -12 -17 -16 -6
-23 9 -6 11 -16 6 -32 -12 -37 -26 -51 -40 -39 -9 8 -14 6 -19 -5 -3 -8 -10
-15 -16 -15 -16 0 -12 30 5 36 8 4 15 14 15 24 0 10 8 28 19 41 16 21 17 26 5
56 -8 18 -14 35 -14 37 0 3 21 -2 48 -11 26 -9 53 -18 61 -20z m-263 -20 c-10
-10 -19 5 -10 18 6 11 8 11 12 0 2 -7 1 -15 -2 -18z m94 18 c0 -6 -4 -13 -10
-16 -5 -3 -10 1 -10 9 0 9 5 16 10 16 6 0 10 -4 10 -9z m1385 -81 c3 -5 1 -10
-4 -10 -6 0 -11 5 -11 10 0 6 2 10 4 10 3 0 8 -4 11 -10z m-697 -27 c-4 -34
-28 -43 -28 -10 0 25 7 37 22 37 5 0 8 -12 6 -27z m662 -17 c0 -19 -16 -36
-34 -36 -12 0 -27 -5 -34 -12 -18 -18 -14 -63 7 -82 16 -14 18 -28 15 -78 -5
-65 -22 -114 -25 -68 -4 86 -3 83 -36 92 -23 6 -34 16 -37 31 -9 53 -4 93 15
124 19 31 24 33 75 33 30 0 54 -2 54 -4z m115 -26 c7 -12 -12 -50 -26 -50 -16
0 -22 29 -9 45 14 17 26 19 35 5z m-1261 -54 c-3 -13 -1 -27 5 -30 16 -10 13
-37 -6 -58 -24 -26 -47 -24 -39 5 4 12 10 41 13 65 4 26 11 42 19 42 10 0 13
-7 8 -24z m1316 -60 c0 -7 -9 -16 -20 -19 -15 -4 -20 0 -20 14 0 12 7 19 20
19 11 0 20 -6 20 -14z m1706 0 c3 -8 4 -22 2 -31 -3 -14 -5 -14 -22 -2 -12 9
-17 20 -13 31 8 20 26 21 33 2z m-1816 -48 c0 -10 -7 -18 -15 -18 -11 0 -15
11 -15 38 1 35 2 36 15 18 8 -11 15 -28 15 -38z m-1510 -22 c0 -25 -12 -46
-26 -46 -17 0 -18 32 -2 48 16 16 28 15 28 -2z m1554 -54 c2 -4 -2 -18 -10
-32 l-13 -25 -1 33 c0 29 12 43 24 24z m-35 -141 c-13 -28 -32 -53 -42 -56 -9
-4 -24 -20 -32 -36 -14 -26 -21 -29 -65 -30 -28 -1 -54 -2 -60 -3 -23 -2 -9
20 17 27 18 6 37 22 48 43 10 19 23 34 29 34 7 0 19 9 29 20 9 11 26 20 37 20
13 0 24 10 31 27 7 20 13 23 21 15 9 -9 5 -24 -13 -61z m-1475 50 c10 -16 -5
-41 -25 -41 -22 0 -23 4 -9 31 11 20 25 25 34 10z m1576 -5 c0 -8 -4 -17 -9
-21 -12 -7 -24 12 -16 25 9 15 25 12 25 -4z m-1017 -81 c-4 -15 -36 -12 -41 3
-3 9 3 13 19 10 13 -1 23 -7 22 -13z m498 -17 c1 -13 0 -33 -1 -46 -1 -12 6
-25 14 -28 19 -7 20 -23 4 -61 -6 -15 -11 -31 -10 -35 4 -20 -38 -5 -52 18
-27 39 -53 44 -100 18 -23 -13 -50 -24 -61 -24 -19 1 -19 2 4 20 24 21 29 47
17 90 -6 23 -2 28 32 45 21 11 64 21 95 23 53 3 57 1 58 -20z m-381 -34 c0
-17 -8 -27 -24 -34 -13 -5 -27 -14 -31 -19 -9 -15 -35 -14 -35 2 0 18 70 88
81 82 5 -4 9 -17 9 -31z m42 -86 c1 -18 1 -46 0 -61 -1 -16 6 -37 18 -49 11
-12 20 -30 20 -40 0 -26 -41 -8 -60 28 -12 20 -24 28 -45 29 -38 0 -41 16 -10
49 14 15 33 39 42 52 21 33 33 30 35 -8z m-217 -38 c0 -7 -6 -15 -12 -17 -8
-3 -13 4 -13 17 0 13 5 20 13 18 6 -3 12 -11 12 -18z m-104 -243 c-13 -13 -26
-3 -16 12 3 6 11 8 17 5 6 -4 6 -10 -1 -17z m89 13 c0 -5 -4 -10 -10 -10 -5 0
-10 5 -10 10 0 6 5 10 10 10 6 0 10 -4 10 -10z m90 -20 c0 -25 -37 -47 -54
-30 -8 9 -5 16 13 31 30 24 41 24 41 -1z m110 3 c0 -7 -7 -13 -15 -13 -8 0
-28 -14 -45 -30 -31 -30 -50 -32 -50 -6 0 8 9 16 21 19 11 3 23 15 26 26 4 15
12 20 34 18 16 -1 29 -8 29 -14z m-159 -69 c10 -13 10 -17 -2 -25 -25 -16 -36
-10 -31 16 5 29 14 31 33 9z m184 -4 c10 -17 -14 -38 -35 -33 -20 5 -26 23
-13 36 10 11 41 8 48 -3z m211 -57 c-11 -11 -17 4 -9 23 7 18 8 18 11 1 2 -10
1 -21 -2 -24z m-126 13 c0 -8 -4 -18 -10 -21 -16 -10 -12 -55 4 -55 24 0 28
-18 11 -50 -9 -17 -13 -40 -10 -50 10 -32 -12 -62 -43 -58 -33 4 -41 32 -16
59 19 21 21 76 4 93 -15 15 -12 34 12 66 23 32 48 40 48 16z m-335 -30 c-10
-15 -26 -26 -39 -26 -19 1 -17 4 13 30 40 34 50 33 26 -4z m785 8 c0 -8 -5
-12 -10 -9 -6 4 -8 11 -5 16 9 14 15 11 15 -7z m-563 -24 c-12 -31 -21 -37
-32 -20 -5 8 28 50 39 50 2 0 -1 -13 -7 -30z m-87 1 c0 -5 3 -16 6 -25 4 -11
1 -16 -10 -16 -10 0 -16 9 -16 25 0 14 5 25 10 25 6 0 10 -4 10 -9z m1300 -56
c0 -8 -7 -15 -15 -15 -16 0 -20 12 -8 23 11 12 23 8 23 -8z m-1256 -11 c4 -9
4 -19 2 -21 -8 -8 -26 8 -26 23 0 19 16 18 24 -2z m69 0 c8 -9 -11 -44 -23
-44 -6 0 -10 8 -10 18 0 27 18 41 33 26z m1620 -39 c7 -16 -8 -29 -23 -20 -15
9 -12 35 4 35 8 0 16 -7 19 -15z m-1343 -15 c0 -5 -7 -7 -15 -4 -8 4 -15 8
-15 10 0 2 7 4 15 4 8 0 15 -4 15 -10z m-90 -17 c0 -28 -27 -97 -39 -101 -6
-2 -11 -12 -11 -23 0 -10 -7 -19 -15 -19 -8 0 -15 7 -15 15 0 8 5 15 10 15 6
0 10 11 10 24 0 13 7 29 15 36 8 7 15 22 15 35 0 12 3 25 7 28 12 12 23 7 23
-10z m1164 -88 c-4 -33 -9 -43 -15 -33 -8 14 10 93 18 84 3 -2 1 -25 -3 -51z
m-1094 -160 c0 -8 -4 -15 -10 -15 -5 0 -10 7 -10 15 0 8 5 15 10 15 6 0 10 -7
10 -15z m338 -213 c2 -7 -3 -12 -12 -12 -9 0 -16 7 -16 16 0 17 22 14 28 -4z"/>
<path d="M4277 5560 c-34 -34 -39 -43 -27 -50 19 -12 43 -13 56 -1 5 4 23 11
41 14 24 5 35 2 42 -11 9 -15 13 -15 54 6 62 31 77 29 77 -10 0 -37 17 -88 46
-136 22 -37 62 -52 144 -52 109 0 182 39 196 104 3 17 12 38 19 46 20 22 23
71 5 80 -8 4 -58 13 -110 20 -52 7 -124 16 -160 20 -36 5 -127 9 -203 9 l-138
1 -42 -40z m160 -36 c-3 -3 -12 -4 -19 -1 -8 3 -5 6 6 6 11 1 17 -2 13 -5z
m413 -21 c9 -9 -18 -37 -44 -46 -22 -7 -32 -5 -52 14 -40 38 -32 48 34 42 31
-3 59 -8 62 -10z"/>
<path d="M4981 5531 c-19 -12 21 -33 57 -29 l27 3 -34 18 c-19 9 -35 17 -35
17 -1 0 -7 -4 -15 -9z"/>
<path d="M910 5523 c-14 -3 -28 -11 -32 -18 -5 -7 -18 -10 -34 -7 -37 7 -27
-20 12 -32 16 -5 38 -23 49 -40 24 -36 55 -47 56 -19 0 16 1 16 9 -2 4 -11 22
-29 39 -40 17 -11 31 -28 31 -37 0 -9 5 -20 10 -23 16 -10 12 31 -5 45 -8 6
-17 22 -21 33 -3 12 -12 28 -18 36 -6 7 -18 34 -27 60 -16 47 -24 52 -69 44z"/>
<path d="M6202 5518 c-25 -25 -7 -68 29 -68 25 0 41 25 33 54 -7 28 -40 36
-62 14z"/>
<path d="M5110 5485 c7 -8 18 -15 25 -15 8 0 28 -14 45 -32 28 -28 128 -73
138 -63 2 2 -13 22 -33 44 -26 28 -55 46 -98 60 -75 26 -95 27 -77 6z"/>
<path d="M4065 5470 c3 -5 8 -10 11 -10 2 0 4 5 4 10 0 6 -5 10 -11 10 -5 0
-7 -4 -4 -10z"/>
<path d="M12735 5396 c-48 -50 -51 -77 -11 -91 25 -9 31 -6 51 19 l23 29 13
-22 c20 -32 39 -26 39 12 -1 30 -48 99 -67 96 -5 -1 -26 -20 -48 -43z"/>
<path d="M689 5360 c-26 -15 -30 -53 -14 -122 8 -35 15 -99 15 -143 1 -105 25
-228 55 -284 7 -14 19 -41 25 -58 7 -18 19 -33 27 -33 12 0 14 10 11 48 -6 60
16 232 33 263 7 13 16 80 20 149 l7 125 -29 28 c-19 18 -40 27 -62 27 -17 0
-41 2 -52 5 -11 3 -27 1 -36 -5z"/>
<path d="M1705 5282 c-12 -9 -38 -53 -33 -57 2 -2 12 -5 23 -7 15 -2 20 4 26
35 6 37 3 43 -16 29z"/>
<path d="M926 5204 c-3 -8 -3 -32 0 -53 5 -32 12 -40 40 -50 22 -8 34 -19 34
-31 0 -26 -63 -90 -88 -90 -33 0 -47 -72 -45 -240 2 -155 21 -278 51 -320 9
-14 28 -46 42 -73 27 -52 40 -57 71 -26 19 19 22 19 38 4 12 -10 23 -45 31
-93 16 -94 58 -173 114 -214 37 -26 41 -27 47 -11 3 10 2 29 -3 43 -6 14 -14
63 -19 110 -13 129 -20 162 -41 192 -10 15 -25 58 -32 95 -8 37 -19 81 -25 96
-18 45 -13 83 19 151 17 36 31 83 32 109 3 51 -17 86 -113 199 -39 46 -62 84
-73 120 -24 84 -64 124 -80 82z"/>
<path d="M1862 4794 c1 -9 9 -19 16 -22 9 -3 13 2 10 14 -1 9 -9 19 -16 22 -9
3 -13 -2 -10 -14z"/>
<path d="M19990 4661 c0 -19 35 -39 47 -27 7 7 -26 46 -39 46 -4 0 -8 -9 -8
-19z"/>
<path d="M5936 4394 c-9 -24 -7 -92 3 -98 12 -8 21 18 21 64 0 41 -14 61 -24
34z"/>
<path d="M4060 3980 c-56 -18 -110 -57 -110 -80 0 -7 6 -8 18 -2 9 6 35 13 57
16 34 6 47 3 79 -19 21 -14 45 -24 52 -21 32 12 2 99 -38 110 -27 7 -25 7 -58
-4z"/>
<path d="M5863 3890 c-3 -11 -9 -20 -13 -20 -4 0 -15 -15 -23 -33 -19 -40 -13
-165 10 -211 13 -24 13 -36 2 -75 -7 -25 -19 -50 -27 -55 -34 -20 -55 -122
-27 -132 11 -5 15 -22 15 -69 0 -34 3 -77 6 -95 l7 -32 13 23 c7 13 13 34 14
46 0 12 5 25 10 28 6 3 10 39 10 79 0 61 4 79 24 109 14 20 24 49 24 70 0 19
5 45 12 57 10 19 12 62 8 190 0 14 3 41 7 61 6 30 3 41 -14 58 -26 26 -51 27
-58 1z m11 -397 c4 -10 -1 -23 -14 -35 -11 -10 -20 -23 -20 -28 0 -15 -17 -12
-23 4 -8 20 21 76 38 76 7 0 16 -7 19 -17z"/>
<path d="M3390 3830 c0 -5 7 -10 15 -10 8 0 15 5 15 10 0 6 -7 10 -15 10 -8 0
-15 -4 -15 -10z"/>
<path d="M1293 3723 c-18 -6 -16 -33 1 -33 19 0 31 19 20 30 -5 4 -15 5 -21 3z"/>
<path d="M4116 3703 c-3 -4 -6 -17 -6 -30 0 -31 34 -28 38 3 3 21 -20 39 -32
27z"/>
<path d="M4180 3587 c0 -16 9 -28 25 -35 14 -6 25 -16 25 -22 0 -5 7 -10 16
-10 22 0 14 40 -11 54 -10 6 -25 17 -33 24 -19 17 -22 15 -22 -11z"/>
<path d="M2180 3502 c0 -10 -5 -23 -11 -29 -13 -13 -5 -43 10 -43 12 0 34 67
26 80 -10 16 -25 12 -25 -8z"/>
<path d="M4270 3515 c0 -3 4 -13 9 -23 5 -9 17 -44 27 -77 20 -67 42 -101 57
-86 6 6 5 21 -2 42 -6 17 -11 43 -11 56 0 13 -6 26 -14 29 -8 3 -20 19 -26 35
-7 16 -19 29 -26 29 -8 0 -14 -2 -14 -5z"/>
<path d="M4400 3445 c0 -3 4 -13 9 -23 6 -9 17 -42 27 -72 9 -30 23 -65 31
-78 10 -17 11 -27 4 -36 -8 -9 0 -18 30 -34 44 -24 69 -28 69 -12 0 6 -9 10
-19 10 -25 0 -29 6 -47 75 -18 71 -19 68 12 62 24 -4 25 -3 10 12 -13 13 -20
13 -36 3 -18 -11 -20 -10 -20 16 0 17 -9 36 -23 48 -29 26 -47 37 -47 29z"/>
<path d="M5701 3413 c-6 -13 -5 -29 5 -52 8 -18 15 -47 15 -65 1 -23 3 -19 10
19 13 76 -6 141 -30 98z"/>
<path d="M2110 3380 c0 -11 5 -20 10 -20 6 0 10 9 10 20 0 11 -4 20 -10 20 -5
0 -10 -9 -10 -20z"/>
<path d="M4750 3325 c7 -8 16 -12 21 -9 13 8 1 24 -18 24 -13 0 -13 -3 -3 -15z"/>
<path d="M4877 3298 c-2 -18 2 -48 9 -67 8 -18 14 -43 14 -54 0 -11 5 -35 12
-53 9 -27 9 -35 -5 -49 -19 -19 -21 -31 -7 -40 6 -3 15 4 20 17 5 13 15 31 22
40 10 13 10 24 0 51 -7 19 -9 47 -6 64 4 22 2 32 -10 36 -9 4 -16 13 -16 21 0
7 -6 26 -14 40 l-14 27 -5 -33z"/>
<path d="M4655 3290 c-3 -5 -17 -10 -31 -10 -14 0 -23 -4 -20 -9 3 -4 23 -4
45 2 22 6 38 14 35 19 -7 11 -22 10 -29 -2z"/>
<path d="M2207 3273 c-4 -3 -7 -21 -7 -40 0 -31 2 -33 20 -23 13 7 20 21 20
40 0 28 -17 40 -33 23z"/>
<path d="M4706 3253 c-3 -3 -3 -10 0 -14 7 -12 34 -11 34 0 0 11 -26 22 -34
14z"/>
<path d="M1804 3166 c-8 -22 3 -33 18 -18 9 9 9 15 0 24 -9 9 -13 7 -18 -6z"/>
<path d="M2142 3158 c5 -15 28 -18 29 -3 0 6 -7 12 -17 13 -10 3 -15 -1 -12
-10z"/>
<path d="M5661 3076 c-19 -23 -10 -61 14 -61 14 0 21 8 23 26 4 33 -20 56 -37
35z"/>
<path d="M4707 3015 c19 -25 38 -32 47 -16 6 9 -36 41 -54 41 -6 0 -3 -11 7
-25z"/>
<path d="M4912 2986 c-20 -20 -22 -26 -11 -50 9 -19 19 -26 33 -24 17 2 22 11
24 51 4 54 -9 60 -46 23z"/>
<path d="M1710 2899 c0 -5 5 -7 10 -4 6 3 10 8 10 11 0 2 -4 4 -10 4 -5 0 -10
-5 -10 -11z"/>
<path d="M1700 2831 c0 -18 18 -21 30 -6 10 13 9 15 -9 15 -11 0 -21 -4 -21
-9z"/>
<path d="M5352 2798 c4 -43 33 -46 33 -3 0 21 -5 31 -18 33 -15 3 -18 -2 -15
-30z"/>
<path d="M3270 2786 c0 -2 6 -9 14 -15 10 -9 15 -8 19 2 3 8 -3 13 -14 14 -10
1 -19 0 -19 -1z"/>
<path d="M4810 2746 c-46 -20 -51 -26 -40 -45 5 -10 22 -22 37 -26 38 -9 45
-24 25 -58 -15 -26 -15 -31 -2 -35 8 -3 32 -23 53 -44 21 -21 42 -38 47 -38
21 0 9 41 -20 66 -21 19 -27 31 -21 43 11 21 7 43 -18 96 -25 52 -29 55 -61
41z"/>
<path d="M3150 2674 c0 -9 5 -14 12 -12 18 6 21 28 4 28 -9 0 -16 -7 -16 -16z"/>
<path d="M3110 2632 c-20 -6 -50 -33 -50 -44 0 -18 41 -6 56 17 18 28 17 35
-6 27z"/>
<path d="M3890 2535 c-8 -9 -10 -28 -6 -52 6 -35 5 -36 -8 -19 -19 23 -63 15
-87 -16 -21 -27 -47 -18 -60 22 -15 42 -45 40 -51 -2 -4 -23 0 -36 11 -44 13
-10 13 -14 2 -28 -11 -13 -11 -19 -1 -31 12 -14 15 -14 30 0 16 15 19 14 40
-14 12 -17 28 -31 36 -31 9 0 22 -7 30 -15 22 -22 50 -18 71 8 13 17 28 24 53
24 68 0 87 10 98 52 8 36 7 42 -13 61 -22 21 -44 13 -30 -10 3 -5 3 -10 -2
-10 -4 0 -13 11 -20 25 -9 21 -9 25 5 25 10 1 3 7 -15 15 -18 7 -38 23 -45 34
-15 25 -22 26 -38 6z m-50 -120 c0 -8 -9 -15 -20 -15 -20 0 -26 11 -13 23 12
13 33 7 33 -8z"/>
<path d="M18984 2455 c11 -8 23 -15 28 -15 4 0 8 -9 8 -20 0 -11 -4 -20 -10
-20 -15 0 -12 -27 4 -33 11 -4 13 -16 9 -43 -4 -27 -3 -36 6 -33 7 3 12 7 11
9 -1 3 3 17 9 32 7 19 7 29 0 34 -8 4 -7 9 1 14 17 11 4 59 -18 66 -9 3 -25
10 -34 15 -27 14 -35 10 -14 -6z"/>
<path d="M4965 2450 c3 -5 10 -10 16 -10 5 0 9 5 9 10 0 6 -7 10 -16 10 -8 0
-12 -4 -9 -10z"/>
<path d="M5050 2361 c0 -6 5 -13 10 -16 6 -3 10 1 10 9 0 9 -4 16 -10 16 -5 0
-10 -4 -10 -9z"/>
<path d="M5105 2310 c3 -5 8 -10 11 -10 2 0 4 5 4 10 0 6 -5 10 -11 10 -5 0
-7 -4 -4 -10z"/>
<path d="M5070 2295 c0 -2 11 -15 25 -29 28 -28 34 -17 8 14 -16 18 -33 26
-33 15z"/>
<path d="M3700 2205 c0 -8 5 -15 10 -15 6 0 10 7 10 15 0 8 -4 15 -10 15 -5 0
-10 -7 -10 -15z"/>
<path d="M4912 1983 c2 -10 14 -20 27 -21 19 -3 22 0 17 13 -3 9 -6 19 -6 21
0 2 -9 4 -21 4 -14 0 -19 -5 -17 -17z"/>
<path d="M4781 1841 c-16 -29 3 -58 25 -40 17 14 17 20 0 44 -13 18 -14 18
-25 -4z"/>
<path d="M17476 1195 c-11 -8 -16 -18 -12 -22 3 -4 16 3 29 15 24 25 12 29
-17 7z"/>
<path d="M4280 950 c0 -5 5 -10 11 -10 5 0 7 5 4 10 -3 6 -8 10 -11 10 -2 0
-4 -4 -4 -10z"/>
<path d="M3616 911 c-3 -5 0 -14 8 -20 11 -9 15 -8 20 5 3 8 6 18 6 20 0 8
-29 4 -34 -5z"/>
<path d="M4225 890 c-3 -5 -1 -10 4 -10 6 0 11 5 11 10 0 6 -2 10 -4 10 -3 0
-8 -4 -11 -10z"/>
<path d="M3880 870 c8 -5 11 -10 5 -10 -5 0 -11 -12 -12 -27 0 -15 -6 -29 -11
-31 -10 -3 -4 -41 7 -43 60 -11 102 3 67 23 -11 6 -16 23 -16 53 0 42 -2 45
-27 45 -22 0 -25 -2 -13 -10z"/>
<path d="M4030 865 c0 -9 7 -18 15 -21 8 -4 15 -15 15 -25 0 -27 18 -24 22 4
2 15 9 21 21 19 16 -3 17 0 7 17 -13 26 -30 27 -30 4 -1 -17 -1 -17 -14 0 -16
21 -36 22 -36 2z"/>
<path d="M3361 844 c0 -11 3 -14 6 -6 3 7 2 16 -1 19 -3 4 -6 -2 -5 -13z"/>
<path d="M3740 836 c0 -9 7 -16 16 -16 17 0 14 22 -4 28 -7 2 -12 -3 -12 -12z"/>
<path d="M4236 824 c-9 -22 -8 -24 10 -24 8 0 12 5 9 10 -3 6 -1 10 5 10 6 0
8 5 5 10 -9 15 -22 12 -29 -6z"/>
<path d="M3306 805 c-9 -24 -8 -25 15 -25 14 0 19 5 17 17 -4 23 -24 27 -32 8z"/>
<path d="M3734 788 c-5 -8 -2 -9 9 -5 10 4 17 1 17 -6 0 -9 2 -9 8 0 4 6 21
13 37 16 22 3 17 4 -17 6 -27 0 -50 -4 -54 -11z"/>
<path d="M3557 783 c-17 -17 -6 -35 18 -31 14 3 25 1 25 -5 0 -7 4 -7 12 1 8
8 8 15 3 21 -15 13 -50 22 -58 14z"/>
<path d="M4027 783 c-16 -15 -6 -33 18 -33 28 0 34 24 9 34 -19 7 -19 7 -27
-1z"/>
<path d="M3805 760 c3 -5 13 -10 21 -10 8 0 14 5 14 10 0 6 -9 10 -21 10 -11
0 -17 -4 -14 -10z"/>
</g>
</svg>
